<svg width="125" height="76" viewBox="0 0 125 76" fill="none" xmlns="http://www.w3.org/2000/svg">
<path d="M22.0762 37.7892C22.0762 41.7098 22.0762 45.6304 22.0762 49.5511C22.0762 49.7672 22.1071 49.9833 22.1071 50.1994C22.1071 50.6007 21.8601 50.8785 21.4588 50.8785C18.5878 50.8785 15.6859 50.9094 12.8149 50.8168C11.0553 50.755 9.38822 50.2611 7.78293 49.4893C6.36286 48.7793 5.03541 47.9149 3.92406 46.8035C2.84357 45.7231 1.94831 44.4882 1.26915 43.099C0.713475 41.9259 0.343023 40.7528 0.219539 39.4562C0.157797 38.8697 -0.0274278 38.2832 0.00344314 37.6966C0.0343141 36.8631 0.157798 36.0296 0.343023 35.2269C0.497378 34.5169 0.713474 33.8377 0.991313 33.1586C1.6396 31.5224 2.5966 30.1023 3.83144 28.8675C4.9428 27.7562 6.17764 26.8918 7.56683 26.1817C8.5547 25.6878 9.57344 25.3173 10.6848 25.1012C11.0552 25.0395 11.4257 24.9469 11.7962 24.8543C12.1357 24.7925 12.2592 24.916 12.2592 25.2556C12.2592 26.8609 12.2901 28.4971 12.2901 30.1023C12.2901 30.6272 12.2592 30.6272 11.6418 30.8433C10.0982 31.3372 8.80167 32.1707 7.78293 33.4673C6.76418 34.7947 6.17764 36.2457 6.20851 37.9436C6.23938 39.4871 6.82593 40.8763 7.78293 42.0803C8.49296 42.9755 9.35734 43.6856 10.3761 44.2104C11.5801 44.8278 12.8458 45.0439 14.1732 45.0748C14.5437 45.0748 14.945 45.0748 15.3154 45.0748C15.7785 45.0748 15.902 44.9204 15.902 44.4574C15.902 42.142 15.902 39.8267 15.902 37.5114C15.9329 33.4673 15.9637 29.4232 15.9637 25.41C15.9637 24.916 16.2724 24.6382 16.7664 24.6382C18.2482 24.6382 19.7609 24.6382 21.2427 24.6382C21.7675 24.6382 21.9836 24.8543 21.9836 25.3791C22.0762 29.5467 22.0762 33.6525 22.0762 37.7892Z" fill="#0A131B"/>
<path d="M24.3606 37.882C24.3606 33.7761 24.3606 29.6703 24.3606 25.5644C24.3606 25.1014 24.7928 24.6692 25.2559 24.6692C29.3309 24.6692 33.4058 24.6692 37.4808 24.6692C37.9439 24.6692 38.2526 24.9779 38.2526 25.441C38.2526 26.8919 38.2526 28.3428 38.2834 29.7938C38.2834 30.226 37.9747 30.5347 37.5425 30.5347C35.4433 30.5347 33.3132 30.5347 31.214 30.5347C30.6274 30.5347 30.5657 30.5964 30.5657 31.183C30.5657 37.5115 30.5657 43.8401 30.5657 50.1686C30.5657 50.6317 30.3187 50.8786 29.8557 50.8786C28.2504 50.8786 26.6451 50.8478 25.0398 50.8478C24.6076 50.8478 24.3915 50.6008 24.3915 50.1686C24.3606 46.0628 24.3606 41.9878 24.3606 37.882Z" fill="#0A131B"/>
<path d="M42.2041 32.4178C42.2041 30.4421 42.2041 28.4663 42.2041 26.4906C42.2041 25.9349 42.3584 25.7806 42.9141 25.7806C44.0563 25.7806 45.1677 25.7497 46.3099 25.7806C47.1743 25.8114 48.0695 25.8732 48.9031 26.1819C50.9097 26.9537 52.4532 28.2502 53.2559 30.2569C53.7498 31.4608 53.7498 32.7265 53.4411 33.9922C53.1633 35.1345 52.5458 36.1223 51.7432 36.925C51.1566 37.4807 50.4466 37.9437 49.7366 38.3142C49.1192 38.6538 48.4091 38.8081 47.73 39.0242C47.5139 39.086 47.2978 39.086 47.0817 39.086C45.6307 39.086 44.2107 39.086 42.7597 39.086C42.3275 39.086 42.2041 38.9316 42.2041 38.4377C42.1732 36.4311 42.1732 34.4244 42.2041 32.4178ZM45.5073 32.387C45.5073 32.9118 45.5073 33.4057 45.5073 33.9305C45.5073 34.4553 45.5073 34.9801 45.5073 35.5049C45.5073 35.8136 45.5999 36.1223 45.9703 36.0606C46.6186 35.9989 47.2669 35.9989 47.8534 35.7828C48.6561 35.5049 49.3353 35.011 49.8292 34.2392C50.6318 33.0044 50.5701 31.3682 49.6131 30.2877C48.6561 29.2072 47.483 28.6824 46.0321 28.775C45.5999 28.8059 45.5073 28.8677 45.5073 29.2999C45.5073 30.3495 45.5073 31.3682 45.5073 32.387Z" fill="#0A131B"/>
<path d="M57.4543 32.3869C57.4543 30.442 57.4543 28.4663 57.4543 26.5214C57.4543 25.8731 57.5778 25.7805 58.2261 25.7805C60.7575 25.7805 63.2889 25.7805 65.8203 25.7805C66.1908 25.7805 66.3452 25.904 66.3452 26.2745C66.3452 26.9536 66.376 27.6019 66.376 28.2811C66.376 28.6206 66.1599 28.8059 65.7586 28.8059C64.4003 28.8059 63.0728 28.8059 61.7145 28.8059C60.5105 28.8059 60.7266 28.8367 60.6958 29.7937C60.634 31.1829 60.8193 30.9977 61.8689 30.9977C63.1654 30.9977 64.4312 30.9977 65.7277 30.9977C66.2525 30.9977 66.3452 31.0903 66.3452 31.5843C66.3452 32.1091 66.3452 32.6647 66.376 33.1896C66.376 33.807 66.2525 33.9305 65.666 33.9305C64.2151 33.9305 62.795 33.9305 61.3441 33.9305C60.7575 33.9305 60.6958 34.0231 60.6958 34.6096C60.6958 34.9183 60.6958 35.227 60.6958 35.5357C60.6958 35.9988 60.8192 36.0914 61.2823 36.0914C62.7641 36.0914 64.2768 36.0914 65.7586 36.0914C66.2834 36.0914 66.3452 36.1532 66.3452 36.678C66.3452 37.2645 66.3452 37.8202 66.376 38.4067C66.376 38.9007 66.2217 39.055 65.7277 39.055C63.1654 39.055 60.6032 39.055 58.0409 39.0242C57.5469 39.0242 57.4543 38.9007 57.4543 38.4376C57.4543 36.4619 57.4543 34.4244 57.4543 32.3869Z" fill="#0A131B"/>
<path d="M85.0529 32.4485C85.0529 30.4419 85.0529 28.4661 85.0529 26.4595C85.0529 25.9038 85.2382 25.7495 85.763 25.7804C88.2635 25.7804 90.7641 25.8112 93.2955 25.8112C93.8203 25.8112 93.9129 25.873 93.9438 26.4286C93.9747 26.9843 93.9747 27.54 93.9747 28.0957C93.9747 28.744 93.8821 28.8366 93.2029 28.8366C91.752 28.8366 90.301 28.8366 88.8501 28.8366C88.3253 28.8366 88.2635 28.8983 88.2635 29.4231C88.2635 29.7627 88.2635 30.1023 88.2635 30.411C88.2635 30.8123 88.4179 30.9667 88.8192 30.9667C90.3319 30.9667 91.8137 30.9667 93.3264 30.9667C93.8512 30.9667 93.9129 31.0284 93.9129 31.5224C93.9438 32.078 93.9438 32.6646 93.9747 33.2203C93.9747 33.8377 93.9129 33.8994 93.2955 33.8994C91.8446 33.8994 90.3936 33.8994 88.9427 33.8994C88.3253 33.8994 88.2635 33.9612 88.2635 34.5786C88.2635 34.8873 88.2635 35.196 88.2635 35.5047C88.2635 35.9369 88.387 36.0604 88.8192 36.0604C90.301 36.0604 91.8137 36.0604 93.2955 36.0604C93.9129 36.0604 93.9129 36.0604 93.9438 36.6778C93.9438 37.2644 93.9747 37.82 93.9747 38.4066C93.9747 38.9314 93.8512 39.0549 93.3572 39.0549C90.795 39.0549 88.2018 39.0549 85.6395 39.024C85.1764 39.024 85.0529 38.9005 85.0529 38.4375C85.0529 36.4617 85.0529 34.4551 85.0529 32.4485Z" fill="#0A131B"/>
<path d="M105.335 39.0858C103.267 39.1167 101.723 38.6228 100.365 37.5732C99.3153 36.7705 98.4818 35.7209 98.0805 34.4552C97.4631 32.4795 97.7101 30.6272 98.8831 28.8675C99.6241 27.7562 100.643 27.0153 101.816 26.4596C102.619 26.0892 103.452 25.8113 104.378 25.8422C105.15 25.8731 105.922 25.7805 106.663 25.9348C107.558 26.12 108.453 26.4905 109.225 27.0153C109.41 27.1696 109.626 27.2931 109.811 27.4475C110.028 27.6327 110.058 27.8797 109.842 28.0958C109.256 28.6515 108.669 29.238 108.052 29.7937C107.99 29.8554 107.712 29.8554 107.62 29.7628C106.724 29.0528 105.706 28.7132 104.563 28.8675C102.711 29.1145 101.013 30.4111 101.044 32.6029C101.044 33.2821 101.291 33.8995 101.723 34.4552C102.217 35.0726 102.804 35.6283 103.576 35.8444C104.316 36.0914 105.088 36.2457 105.922 35.9987C106.539 35.8135 107.126 35.5974 107.62 35.1652C107.867 34.9491 108.083 35.1344 108.268 35.2887C108.669 35.6283 109.04 35.9987 109.41 36.3692C109.441 36.4001 109.472 36.4309 109.534 36.4618C110.151 37.0175 110.151 37.2644 109.441 37.7275C108.021 38.7154 106.724 39.1167 105.335 39.0858Z" fill="#0A131B"/>
<path d="M75.7917 25.6262C77.4587 25.6262 79.0949 25.6262 80.7619 25.6262C81.2558 25.6262 81.3484 25.7188 81.3484 26.2128C81.3484 26.7376 81.4102 27.2624 81.3793 27.7872C81.3485 28.065 81.2867 28.3737 81.1324 28.6516C81.0706 28.7751 80.8236 28.8368 80.6693 28.8368C79.7432 28.8368 78.8479 28.8368 77.9218 28.8368C77.397 28.8368 77.3661 28.8677 77.3661 29.3925C77.3661 32.3252 77.3661 35.258 77.3661 38.1907C77.3661 38.3759 77.4278 38.592 77.3352 38.7155C77.2117 38.9007 76.9956 39.086 76.7795 39.086C76.0078 39.1168 75.236 39.086 74.4642 39.086C74.1246 39.086 74.0938 38.8081 74.0012 38.592C73.9703 38.4685 73.9703 38.3451 73.9703 38.2216C74.0012 35.2271 74.032 32.2635 74.0938 29.269C74.0938 28.6516 74.0012 28.559 73.3837 28.559C72.5194 28.559 71.6241 28.559 70.7597 28.559C70.3893 28.559 70.204 28.3429 70.204 27.9724C70.204 27.355 70.2349 26.7376 70.204 26.1202C70.1732 25.7188 70.3275 25.6262 70.698 25.6262C72.4267 25.6262 74.0938 25.6262 75.7917 25.6262Z" fill="#0A131B"/>
<path d="M119.381 25.8423C121.049 25.8423 122.685 25.8423 124.352 25.8423C124.877 25.8423 124.938 25.904 124.938 26.4288C124.938 27.0154 124.969 27.5711 125 28.1576C125 28.6207 124.815 28.8059 124.352 28.8059C123.426 28.8059 122.53 28.8059 121.604 28.8059C121.049 28.8059 120.987 28.8676 120.987 29.4233C120.987 32.4178 120.987 35.4123 120.987 38.4068C120.987 39.0242 120.925 39.0859 120.308 39.0859C119.69 39.0859 119.042 39.0859 118.424 39.0551C117.992 39.0551 117.838 38.8698 117.838 38.4376C117.838 35.8754 117.838 33.3131 117.838 30.7508C117.838 30.2877 117.807 29.7938 117.776 29.3307C117.745 28.8985 117.653 28.8059 117.251 28.8059C116.356 28.8059 115.461 28.775 114.566 28.775C114.01 28.775 113.886 28.6515 113.917 28.0959C113.917 27.5093 113.917 26.9536 113.917 26.3671C113.917 25.904 113.948 25.8732 114.411 25.8732C116.047 25.8423 117.714 25.8423 119.381 25.8423Z" fill="#0A131B"/>
<path d="M70.0188 49.119C70.0188 48.2237 70.0188 47.3593 70.0188 46.4641C70.0188 46.1863 70.1114 46.0628 70.3892 46.0936C70.6053 46.0936 70.8214 46.1554 71.0067 46.0936C71.6241 45.9702 71.9328 46.2789 72.2106 46.7728C72.7046 47.5754 73.2294 48.3781 73.7542 49.1499C73.8159 49.2425 73.9394 49.3351 74.0629 49.3968C74.1246 49.2733 74.2173 49.119 74.2173 48.9955C74.2173 48.162 74.2173 47.3285 74.1864 46.495C74.1864 46.1863 74.279 46.0628 74.5877 46.0936C74.8655 46.1245 75.1434 46.0936 75.3903 46.1245C75.483 46.1554 75.6373 46.3097 75.6373 46.4023C75.6682 48.1929 75.6682 50.0142 75.6682 51.8048C75.6682 52.1443 75.5447 52.3604 75.1742 52.2987C75.0508 52.2987 74.9273 52.2678 74.8347 52.2987C74.0938 52.4531 73.7542 51.9591 73.4146 51.4034C72.9207 50.6008 72.3959 49.829 71.9019 49.0572C71.8711 48.9955 71.6858 48.9338 71.655 48.9646C71.5623 49.0573 71.5006 49.1807 71.5006 49.2734C71.5006 50.076 71.5315 50.8786 71.5315 51.6504C71.5315 52.2678 71.5006 52.2987 70.8832 52.2987C70.0497 52.2678 70.0497 52.2678 70.0497 51.4343C70.0188 50.6317 70.0188 49.8908 70.0188 49.119Z" fill="#0A131B"/>
<path d="M80.8545 46.0936C82.4289 46.0628 83.5094 46.6802 84.1577 48.0385C84.7751 49.366 84.0342 51.1873 82.7068 51.8356C81.7806 52.2678 80.8854 52.3296 79.8975 52.1135C78.8788 51.8665 77.8909 50.7551 77.7057 49.7673C77.3352 47.8533 78.6009 46.6184 80.1136 46.1554C80.3606 46.0936 80.6693 46.1245 80.8545 46.0936ZM79.1566 49.2116C79.1875 49.3351 79.1875 49.5203 79.2492 49.7055C79.6814 50.6934 80.7928 51.1256 81.7806 50.6934C82.7685 50.2303 83.3551 49.0264 82.3055 48.1002C82.1202 47.9459 81.935 47.7915 81.7189 47.6681C81.225 47.3593 80.7002 47.4211 80.2062 47.6681C79.6506 47.9459 79.1875 48.3781 79.1566 49.2116Z" fill="#0A131B"/>
<path d="M91.8137 49.1498C91.8137 47.4827 93.2029 46.1553 94.8699 46.1244C95.9504 46.0935 96.8457 46.4022 97.6792 47.1431C98.7905 48.1619 98.7288 50.1376 97.7409 51.1872C96.6604 52.2677 95.3639 52.5764 93.9747 52.1134C92.8324 51.7429 91.6593 50.6316 91.8137 49.1498ZM95.1169 47.4519C94.2525 47.4519 93.2646 48.3163 93.2646 49.088C93.2338 49.9215 94.2525 50.9094 95.1478 50.9094C96.043 50.9094 96.9691 50.0142 97 49.1806C97 48.378 95.8887 47.3592 95.1169 47.4519Z" fill="#0A131B"/>
<path d="M105.428 48.9646C105.891 48.9646 106.354 48.9646 106.817 48.9646C107.126 48.9646 107.218 49.0881 107.157 49.4277C107.002 50.1068 106.848 50.7551 106.323 51.2799C105.52 52.0826 104.533 52.3604 103.452 52.2369C102.125 52.0826 101.168 51.4034 100.643 50.1377C100.519 49.829 100.581 49.4894 100.55 49.1498C100.458 47.7606 101.229 46.958 102.341 46.4332C103.514 45.8775 104.718 45.9701 105.829 46.6801C106.138 46.8654 106.138 47.0197 105.891 47.2976C105.829 47.3593 105.767 47.421 105.706 47.4828C105.273 47.9767 105.212 47.9767 104.656 47.668C104.131 47.3593 103.576 47.2976 103.02 47.6371C102.402 48.0076 101.909 48.5015 102.032 49.2733C102.125 49.9833 102.588 50.3847 103.205 50.7242C103.73 51.0021 104.193 50.8786 104.687 50.6934C104.78 50.6625 104.81 50.5699 104.872 50.5081C104.81 50.4464 104.718 50.3538 104.656 50.3229C104.502 50.2921 104.347 50.292 104.193 50.292C103.915 50.3229 103.823 50.1686 103.823 49.9216C103.761 48.9337 103.761 48.9337 104.718 48.9337C104.934 48.9646 105.181 48.9646 105.428 48.9646Z" fill="#0A131B"/>
<path d="M45.569 2.41117C45.569 2.71988 45.5381 3.02859 45.569 3.3373C45.6616 3.95472 44.8898 4.75736 44.2107 4.72649C43.5315 4.69562 42.8523 4.72649 42.1732 4.69562C41.4632 4.66475 40.9075 4.10907 40.9075 3.36817C40.9075 2.71988 40.9692 2.07159 40.9075 1.45417C40.8149 0.775006 41.6793 -0.058504 42.3275 0.00323797C42.8832 0.0649799 43.4698 0.00323797 44.0254 0.00323797C44.9824 0.00323797 45.5999 0.620659 45.569 1.57766C45.569 1.88637 45.569 2.1642 45.569 2.41117Z" fill="#0A131B"/>
<path d="M62.9494 49.1808C62.9494 48.3164 62.9494 47.4211 62.9494 46.5567C62.9494 46.2172 63.0728 46.1245 63.3815 46.1245C64.3694 46.1245 64.3694 46.1245 64.3694 47.0815C64.3694 47.3903 64.3694 47.6681 64.3694 47.9768C64.3694 48.2546 64.4929 48.409 64.7707 48.409C65.2338 48.409 65.666 48.4399 66.1291 48.4399C66.5613 48.4399 66.6539 48.3164 66.6539 47.8533C66.6539 47.3903 66.6539 46.9581 66.623 46.495C66.5921 46.1863 66.7156 46.1245 66.9934 46.1245C68.0122 46.0937 68.0122 46.0937 68.0122 47.0815C68.0122 48.6251 68.0122 50.1686 68.0431 51.7122C68.0431 52.1444 67.9505 52.237 67.5183 52.2061C66.6539 52.1753 66.6539 52.1753 66.623 51.28C66.623 50.9404 66.5921 50.6008 66.5921 50.2921C66.5921 49.9834 66.4378 49.8291 66.0982 49.8291C65.666 49.8291 65.2647 49.8291 64.8325 49.8291C64.4929 49.8291 64.3386 49.9525 64.3386 50.323C64.3386 50.8169 64.3386 51.3109 64.3386 51.8357C64.3386 52.1135 64.2459 52.237 63.9681 52.237C62.795 52.1753 62.9185 52.4222 62.9185 51.2183C62.9494 50.5391 62.9494 49.8599 62.9494 49.1808Z" fill="#0A131B"/>
<path d="M43.2228 16.8587C42.8524 16.8587 42.5128 16.8587 42.1423 16.8587C41.3706 16.8279 40.9075 16.3648 40.9075 15.593C40.9075 14.9756 40.9075 14.3273 40.9075 13.7099C40.9075 12.8455 41.4014 12.3516 42.2658 12.3516C42.945 12.3516 43.5933 12.3516 44.2724 12.3516C45.0442 12.3516 45.5999 12.9381 45.5999 13.679C45.5999 14.2656 45.569 14.8521 45.5999 15.4387C45.6307 16.2722 45.0442 16.9513 44.2107 16.8587C43.8711 16.8279 43.5315 16.8587 43.2228 16.8587Z" fill="#0A131B"/>
<path d="M45.569 8.36927C45.569 8.67798 45.569 8.98669 45.569 9.2954C45.569 9.97456 45.2294 10.5302 44.5503 10.5611C43.6241 10.6228 42.6671 10.592 41.7101 10.4994C41.2162 10.4685 40.8766 9.97456 40.8766 9.44976C40.8766 8.70886 40.8766 7.99882 40.8766 7.25792C40.8766 6.73311 41.494 6.02308 42.1114 6.05395C42.8523 6.11569 43.5932 6.05395 44.3341 6.05395C44.9207 6.05395 45.5381 6.67137 45.5381 7.25792C45.569 7.62837 45.569 7.99882 45.569 8.36927Z" fill="#0A131B"/>
<path d="M2.04093 73.5686C2.04093 73.1982 2.04093 72.8277 2.04093 72.4573C2.04093 71.8399 2.53486 71.3151 3.15228 71.2842C3.89318 71.2842 4.63409 71.2842 5.37499 71.2842C5.93067 71.2842 6.4246 71.7164 6.45547 72.2721C6.48635 73.1364 6.51722 74.0317 6.48635 74.8961C6.45548 75.4826 5.8998 75.9766 5.28238 75.9766C4.66496 75.9766 4.01667 75.9766 3.39925 75.9766C2.90531 75.9766 2.53486 75.7605 2.25702 75.4209C2.13354 75.2665 2.04093 75.0196 2.04093 74.8035C2.01006 74.3713 2.04093 73.97 2.04093 73.5686Z" fill="#0A131B"/>
<path d="M112.59 49.1806C112.59 48.3162 112.59 47.421 112.59 46.5566C112.59 46.2479 112.682 46.1553 112.991 46.1553C114.133 46.1553 115.245 46.1553 116.387 46.1553C116.665 46.1553 116.757 46.2788 116.757 46.5566C116.757 47.421 116.943 47.4827 115.893 47.4518C115.492 47.4518 115.09 47.4518 114.689 47.4518C114.195 47.4518 114.072 47.5445 114.041 47.9149C114.041 48.3471 114.133 48.4397 114.658 48.4397C115.183 48.4397 115.739 48.4706 116.264 48.4397C116.603 48.4397 116.757 48.5632 116.757 48.9028C116.757 50.0141 116.85 49.8598 115.831 49.8598C115.368 49.8598 114.936 49.8598 114.473 49.8598C114.164 49.8598 114.041 50.045 114.041 50.3229C114.041 50.6316 114.103 50.8785 114.473 50.8785C115.06 50.8785 115.646 50.8785 116.233 50.9094C116.696 50.9094 116.727 50.9403 116.727 51.4033C116.727 52.206 116.85 52.2677 115.893 52.2368C114.936 52.206 113.979 52.206 112.991 52.206C112.652 52.206 112.528 52.0825 112.559 51.7429C112.59 50.9094 112.59 50.045 112.59 49.1806Z" fill="#0A131B"/>
<path d="M21.0883 55.2314C21.1501 54.7066 21.1501 54.1509 21.3044 53.657C21.4279 53.1939 21.8601 53.0087 22.3232 52.9778C23.0332 52.947 23.7741 52.9778 24.4841 52.9778C25.1633 52.9778 25.719 53.5335 25.719 54.2435C25.719 54.9227 25.719 55.6327 25.719 56.3119C25.719 57.0219 25.225 57.5467 24.4841 57.5776C23.805 57.5776 23.0949 57.5776 22.4158 57.5776C21.5822 57.5467 21.1192 57.0528 21.1501 56.2193C21.1501 55.9106 21.1501 55.571 21.1501 55.2623C21.1501 55.2314 21.1192 55.2314 21.0883 55.2314Z" fill="#0A131B"/>
<path d="M23.4345 59.2446C23.805 59.2446 24.1445 59.2446 24.515 59.2446C25.1633 59.2446 25.719 59.7386 25.719 60.3869C25.7498 61.1586 25.7498 61.8995 25.719 62.6713C25.6881 63.2887 25.2559 63.7518 24.6385 63.7827C23.8358 63.8135 23.0332 63.8135 22.1997 63.7827C21.4896 63.7518 21.1192 63.2887 21.1192 62.5787C21.1192 61.9304 21.1192 61.2821 21.1192 60.6029C21.1192 59.7386 21.5823 59.2755 22.4466 59.2755C22.7862 59.2755 23.1258 59.2755 23.4345 59.2446C23.4345 59.2755 23.4345 59.2755 23.4345 59.2446Z" fill="#0A131B"/>
<path d="M19.2669 55.2931C19.2669 55.6327 19.2361 56.0031 19.2669 56.3427C19.3287 57.0528 18.7421 57.5467 18.1247 57.5776C17.3838 57.6084 16.612 57.6393 15.902 57.5467C15.1302 57.4541 14.7906 57.1762 14.7906 56.3427C14.7906 55.6018 14.7906 54.8918 14.7906 54.1509C14.7906 53.41 15.2537 52.9778 15.9637 52.9778C16.612 52.9778 17.2912 53.0087 17.9395 52.9778C18.6804 52.9469 19.3595 53.5026 19.2978 54.3052C19.2361 54.6139 19.2669 54.9535 19.2669 55.2931Z" fill="#0A131B"/>
<path d="M2.04093 67.6105C2.04093 67.271 2.04093 66.9314 2.04093 66.6227C2.04093 65.9126 2.25702 65.5113 2.93619 65.4496C3.89319 65.357 4.88105 65.4187 5.83805 65.4804C6.23938 65.5113 6.48635 65.8509 6.48635 66.2213C6.51722 67.1475 6.51722 68.1045 6.48635 69.0306C6.45548 69.4937 5.99241 69.895 5.52934 69.895C4.69583 69.895 3.86231 69.895 3.0288 69.895C2.53486 69.895 2.0718 69.4011 2.04093 68.8762C2.01006 68.4749 2.04093 68.0427 2.04093 67.6105Z" fill="#0A131B"/>
<path d="M4.29451 59.2755C4.66496 59.2755 5.00454 59.2755 5.37499 59.2755C6.02328 59.2755 6.45547 59.646 6.48635 60.2634C6.54809 61.1278 6.51722 62.023 6.48635 62.8874C6.45547 63.4431 6.05415 63.7827 5.43673 63.8136C4.66496 63.8444 3.89318 63.8444 3.12141 63.8136C2.38051 63.7827 2.01006 63.3505 2.01006 62.6096C2.01006 61.8687 2.01006 61.1587 2.01006 60.4178C2.01006 59.7695 2.47312 59.3064 3.12141 59.3064C3.52273 59.2447 3.92405 59.2755 4.29451 59.2755Z" fill="#0A131B"/>
<path d="M19.2669 61.56C19.2669 61.9304 19.2669 62.27 19.2669 62.6405C19.2669 63.2887 18.8965 63.7518 18.2482 63.7827C17.4147 63.8136 16.612 63.8136 15.7785 63.7827C15.0993 63.7518 14.7598 63.3505 14.7598 62.6713C14.7598 61.9304 14.7598 61.1895 14.7598 60.4486C14.7598 59.6768 15.2846 59.3064 15.9637 59.3064C16.6738 59.3064 17.3838 59.3064 18.0938 59.3064C18.8039 59.3064 19.2669 59.7695 19.2669 60.4795C19.2669 60.8191 19.2361 61.1895 19.2669 61.56Z" fill="#0A131B"/>
<path d="M19.2669 67.6416C19.2669 68.0429 19.2669 68.4442 19.2669 68.8456C19.2361 69.463 18.8039 69.926 18.1556 69.926C17.3838 69.926 16.5812 69.926 15.8094 69.8952C15.2537 69.8952 14.8215 69.4938 14.7906 68.9382C14.7598 68.0429 14.7598 67.1785 14.7906 66.2833C14.8215 65.7276 15.2537 65.388 15.902 65.3571C16.612 65.3263 17.3221 65.3263 18.0321 65.3571C18.773 65.388 19.3287 65.8202 19.2669 66.6228C19.2361 66.9624 19.2361 67.302 19.2669 67.6416Z" fill="#0A131B"/>
<path d="M10.7157 59.2446C11.0861 59.2446 11.4566 59.2446 11.827 59.2446C12.4444 59.2446 12.9692 59.7386 12.9692 60.356C13.0001 61.0969 13.0001 61.8378 13.0001 62.5787C13.0001 63.227 12.5988 63.7209 11.9196 63.7518C11.117 63.7827 10.3143 63.7827 9.48083 63.7518C8.89428 63.7209 8.52383 63.4122 8.49296 62.8565C8.43122 61.9304 8.46209 61.0043 8.52383 60.109C8.5547 59.6151 9.01777 59.3064 9.5117 59.2755C9.91303 59.2446 10.3143 59.2755 10.7157 59.2446C10.7157 59.2755 10.7157 59.2755 10.7157 59.2446Z" fill="#0A131B"/>
<path d="M10.7157 69.9259C10.3452 69.9259 9.97477 69.9259 9.60432 69.9259C8.9869 69.9259 8.52384 69.5554 8.49297 68.9689C8.43123 68.1045 8.4621 67.2093 8.49297 66.3449C8.49297 65.8509 8.80168 65.4805 9.29561 65.4805C10.2835 65.4496 11.2714 65.4496 12.2284 65.5113C12.6605 65.5422 12.9693 66.0362 12.9693 66.4684C12.9693 67.271 13.0001 68.0736 12.9693 68.8454C12.9693 69.432 12.4444 69.9259 11.8579 69.9259C11.4874 69.9259 11.0861 69.9259 10.7157 69.9259Z" fill="#0A131B"/>
<path d="M27.2934 20.4089C27.2934 20.7794 27.2934 21.1498 27.2934 21.5203C27.2934 22.1686 26.8612 22.6316 26.2129 22.6316C25.4411 22.6625 24.6385 22.6316 23.8667 22.6316C23.1567 22.6008 22.7862 22.2303 22.7862 21.5203C22.7862 20.7485 22.7862 19.9459 22.8171 19.1741C22.848 18.5567 23.2802 18.1553 23.8667 18.1245C24.6385 18.0936 25.4103 18.0936 26.182 18.1245C26.8303 18.1245 27.2625 18.5875 27.2625 19.2358C27.2934 19.6063 27.2934 20.0076 27.2934 20.4089Z" fill="#0A131B"/>
<path d="M29.0839 20.3782C29.0839 19.9769 29.0839 19.5756 29.0839 19.1742C29.1148 18.5568 29.547 18.1246 30.1644 18.0938C30.9361 18.0938 31.6771 18.0938 32.4488 18.0938C33.0971 18.0938 33.5602 18.5568 33.5602 19.2051C33.5602 19.9769 33.5602 20.7795 33.5602 21.5513C33.5602 22.1687 33.1589 22.6009 32.5414 22.6009C31.7388 22.6318 30.9361 22.6009 30.1644 22.6009C29.547 22.6009 29.053 22.1378 29.0839 21.4587C29.0839 21.1191 29.0839 20.7487 29.0839 20.3782Z" fill="#0A131B"/>
<path d="M29.0839 14.4199C29.0839 14.0495 29.0839 13.7099 29.0839 13.3394C29.0839 12.6294 29.4543 12.2281 30.1644 12.1972C30.9362 12.1664 31.7079 12.1664 32.4797 12.1972C33.1589 12.2281 33.5602 12.6294 33.5602 13.3394C33.5602 14.1112 33.5602 14.883 33.5602 15.6548C33.5602 16.3031 33.0971 16.7353 32.4488 16.7353C31.7079 16.7353 30.967 16.7353 30.2261 16.7353C29.4852 16.7353 29.0839 16.3031 29.0839 15.593C29.0839 15.1917 29.0839 14.7904 29.0839 14.4199Z" fill="#0A131B"/>
<path d="M33.5602 8.36918C33.5602 8.70876 33.5602 9.04834 33.5602 9.41879C33.5602 10.0979 33.3132 10.4993 32.6649 10.561C31.7079 10.6227 30.7509 10.5919 29.7939 10.4993C29.3 10.4375 29.053 10.0671 29.053 9.57314C29.053 8.7705 29.053 7.96785 29.053 7.13434C29.053 6.51692 29.5161 6.08472 30.1335 6.08472C30.9053 6.08472 31.6462 6.08472 32.418 6.08472C33.0354 6.08472 33.4984 6.51691 33.5293 7.1652C33.5602 7.56652 33.5602 7.96785 33.5602 8.36918Z" fill="#0A131B"/>
<path d="M39.3331 8.36918C39.3331 8.70876 39.3331 9.04834 39.3331 9.41879C39.3331 10.1288 39.0861 10.5301 38.4069 10.561C37.4808 10.6227 36.5238 10.5919 35.5668 10.4993C35.0729 10.4375 34.8259 10.0362 34.8259 9.54227C34.8259 8.73962 34.8259 7.93697 34.8259 7.1652C34.8259 6.54778 35.289 6.08472 35.9372 6.08472C36.6473 6.08472 37.3573 6.08472 38.0673 6.08472C38.9009 6.08472 39.3022 6.48604 39.3331 7.31956C39.3331 7.65914 39.3331 8.0296 39.3331 8.36918Z" fill="#0A131B"/>
<path d="M34.8568 14.4199C34.8568 14.0803 34.8876 13.7099 34.8568 13.3703C34.795 12.6294 35.3198 12.2281 35.9372 12.1972C36.709 12.1664 37.4808 12.1664 38.2526 12.1972C38.9626 12.2281 39.333 12.6294 39.333 13.3394C39.333 14.1112 39.333 14.883 39.333 15.6548C39.333 16.2722 38.9009 16.7353 38.2834 16.7353C37.5117 16.7353 36.7399 16.7353 35.9681 16.7353C35.2581 16.7044 34.8568 16.3031 34.8568 15.593C34.8568 15.1917 34.8568 14.7904 34.8568 14.4199Z" fill="#0A131B"/>
<path d="M27.2934 14.4509C27.2934 14.8523 27.2934 15.2845 27.2934 15.6858C27.2625 16.2723 26.8303 16.7045 26.2746 16.7354C25.4411 16.7663 24.6385 16.7354 23.805 16.7354C23.2493 16.7045 22.848 16.3032 22.848 15.7784C22.8171 14.914 22.8171 14.0496 22.848 13.1852C22.848 12.5987 23.2493 12.2591 23.8976 12.2282C24.6694 12.1974 25.4411 12.1974 26.2129 12.2282C26.9229 12.2591 27.2934 12.6604 27.3243 13.4013C27.2934 13.7409 27.2934 14.0805 27.2934 14.4509Z" fill="#0A131B"/>
<path d="M49.1809 49.119C49.1809 48.2855 49.1809 47.4211 49.1809 46.5876C49.1809 46.3098 49.2426 46.1863 49.5513 46.1863C50.6627 46.2172 51.7741 46.1863 52.9163 46.1863C53.225 46.1863 53.3176 46.2789 53.2867 46.5876C53.1941 47.4211 53.225 47.4211 52.3915 47.4211C51.9593 47.4211 51.558 47.4211 51.1258 47.4211C50.6627 47.4211 50.5083 47.5446 50.5083 47.915C50.5083 48.3164 50.6318 48.409 51.0949 48.409C51.6506 48.409 52.2371 48.409 52.7928 48.409C53.1941 48.409 53.3176 48.5633 53.3176 48.9955C53.2867 49.7056 53.4411 49.829 52.4532 49.7982C51.9593 49.7982 51.4653 49.7982 51.0023 49.7982C50.6318 49.7982 50.5392 49.9834 50.5392 50.2921C50.5392 50.7243 50.6627 50.8787 51.0023 50.8787C51.6506 50.9095 52.2989 50.9095 52.978 50.8787C53.2559 50.8787 53.3485 50.9713 53.3176 51.28C53.225 52.1135 53.2559 52.1135 52.3915 52.1135C51.4653 52.1135 50.5701 52.1135 49.644 52.1135C49.3044 52.1135 49.1809 51.99 49.2118 51.6504C49.1809 50.8478 49.1809 49.9834 49.1809 49.119Z" fill="#0A131B"/>
<path d="M58.72 46.0937C59.3683 46.001 59.9857 46.248 60.5723 46.6493C60.9427 46.8963 60.881 46.958 60.634 47.2976C60.171 47.8533 59.7696 47.9459 59.1214 47.5755C58.1952 47.0507 57.1456 47.9768 56.8369 48.6251C56.4973 49.3969 57.1765 50.3539 57.8556 50.6626C58.5039 50.9713 59.0596 50.7552 59.6153 50.4773C59.8623 50.3539 60.0475 50.3539 60.2327 50.5391C60.3253 50.6317 60.4179 50.7243 60.5105 50.8169C61.0662 51.3417 60.9119 51.4343 60.3562 51.7739C58.6892 52.7618 56.5282 52.2061 55.5712 50.5391C54.8303 49.2116 55.2007 47.5446 56.5899 46.6493C57.2691 46.2171 57.7013 46.0937 58.72 46.0937Z" fill="#0A131B"/>
<path d="M120.863 46.1554C121.45 46.0319 121.975 46.2789 122.469 46.5259C122.839 46.7111 122.839 46.8654 122.53 47.1433C122.469 47.205 122.376 47.2668 122.314 47.3285C122.006 47.7298 121.666 47.9151 121.234 47.5755C121.203 47.5446 121.172 47.5446 121.11 47.5446C120.647 47.452 120.277 47.6063 120.215 47.915C120.153 48.2238 120.431 48.4399 120.925 48.5016C121.666 48.5942 122.345 48.8103 122.808 49.4586C123.271 50.1378 123.086 51.2491 122.438 51.7739C121.666 52.4222 120.647 52.5457 119.474 51.9591C119.443 51.9283 119.412 51.9283 119.381 51.8974C119.165 51.7122 118.949 51.527 118.733 51.3726C119.042 51.0639 119.351 50.7552 119.659 50.4773C119.69 50.4465 119.845 50.5082 119.937 50.5391C120.215 50.6317 120.462 50.7552 120.74 50.8478C121.018 50.9404 121.419 50.7243 121.481 50.4773C121.542 50.2304 121.326 49.9834 120.956 49.9525C120.369 49.8908 119.845 49.7673 119.351 49.3969C118.517 48.7794 118.486 47.2359 119.351 46.6185C119.875 46.248 120.308 46.0628 120.863 46.1554Z" fill="#0A131B"/>
<path d="M41.8645 46.1863C42.4819 46.1863 43.0993 46.1863 43.6859 46.1863C44.7046 46.1863 45.7233 46.1863 46.7421 46.1863C47.0199 46.1863 47.1125 46.2789 47.1125 46.5567C47.0817 47.4211 47.3286 47.4829 46.2482 47.452C45.3838 47.4211 45.3838 47.452 45.3838 48.3164C45.3838 49.4586 45.3529 50.6008 45.3838 51.7431C45.3838 52.1135 45.2294 52.2061 44.8898 52.237C43.902 52.2679 43.902 52.2679 43.902 51.3109C43.902 50.1995 43.902 49.0881 43.8711 47.9459C43.8711 47.6063 43.6859 47.452 43.3772 47.452C43.0376 47.4211 42.698 47.4211 42.3275 47.4211C42.0188 47.4211 41.8336 47.3285 41.8953 46.9581C41.8953 46.6802 41.8645 46.4332 41.8645 46.1863Z" fill="#0A131B"/>
<path d="M86.3495 49.119C86.3495 48.2546 86.3495 47.3593 86.3495 46.4949C86.3495 46.2788 86.4113 46.1862 86.6274 46.1862C86.6583 46.1862 86.6891 46.1862 86.7509 46.1862C87.8005 46.1553 87.8005 46.1553 87.8314 47.1741C87.8622 48.2237 87.8314 49.2424 87.8622 50.292C87.8622 50.8786 87.924 50.9403 88.5105 50.9403C88.9736 50.9403 89.4058 50.9403 89.8688 50.9403C90.1158 50.9403 90.2084 51.033 90.2084 51.2799C90.2084 52.1752 90.2084 52.1752 89.3132 52.1752C88.4796 52.1752 87.677 52.1443 86.8435 52.1443C86.5039 52.1443 86.3804 52.0208 86.4113 51.6812C86.3804 50.8477 86.3804 49.9833 86.3495 49.119Z" fill="#0A131B"/>
<path d="M38.3452 19.8531C38.3452 20.1618 38.3452 20.4706 38.3452 20.7793C38.3143 21.2423 38.0673 21.4893 37.6043 21.5202C36.9869 21.551 36.3386 21.5202 35.7212 21.5202C35.3198 21.5202 35.042 21.2423 35.0111 20.8719C34.9802 20.1619 35.0111 19.4518 35.0729 18.7418C35.1037 18.3405 35.4433 18.1861 35.8138 18.1552C36.3694 18.1244 36.956 18.1244 37.5117 18.1552C38.0056 18.1552 38.2834 18.4639 38.3143 18.9579C38.3452 19.2357 38.3452 19.5444 38.3452 19.8531Z" fill="#0A131B"/>
<path d="M30.3187 54.9226C30.3187 55.2313 30.3187 55.5092 30.3187 55.8179C30.3187 56.3427 30.01 56.6205 29.4852 56.6514C28.9604 56.6514 28.4047 56.6514 27.8799 56.6514C27.3551 56.6514 27.0155 56.4353 26.9847 55.9413C26.9229 55.2622 26.9538 54.5522 27.0155 53.873C27.0464 53.4408 27.4169 53.2864 27.7873 53.2556C28.343 53.2247 28.9295 53.2247 29.4852 53.2556C29.9792 53.2556 30.2879 53.5952 30.2879 54.0891C30.3187 54.3669 30.3187 54.6448 30.3187 54.9226Z" fill="#0A131B"/>
<path d="M9.78954 55.8489C9.78954 55.5402 9.78954 55.2315 9.78954 54.9227C9.78954 54.4597 10.0365 54.2127 10.4996 54.1818C11.117 54.151 11.7035 54.151 12.321 54.1818C12.784 54.1818 13.1545 54.5214 13.1545 55.0154C13.1853 55.571 13.1853 56.1267 13.1545 56.6824C13.1236 57.1763 12.7223 57.5468 12.2283 57.5777C11.7035 57.5777 11.2096 57.5776 10.6848 57.5468C10.0674 57.5159 9.78954 57.2072 9.78954 56.5898C9.78954 56.3428 9.78954 56.0958 9.78954 55.8489Z" fill="#0A131B"/>
<path d="M21.5205 21.0264C21.5205 21.2734 21.5205 21.5512 21.5205 21.7982C21.5205 22.2921 21.2427 22.6317 20.7487 22.6317C20.1313 22.6625 19.5139 22.6317 18.8965 22.6008C18.4025 22.5699 18.1247 22.2303 18.1247 21.7364C18.1247 21.2425 18.1247 20.7485 18.1247 20.2855C18.1247 19.6681 18.4334 19.3285 19.0508 19.2976C19.6065 19.2976 20.193 19.2976 20.7487 19.3285C21.2427 19.3594 21.4896 19.6063 21.4896 20.1003C21.5205 20.409 21.4896 20.7177 21.5205 21.0264C21.5205 21.0264 21.4896 21.0264 21.5205 21.0264Z" fill="#0A131B"/>
<path d="M26.2746 7.28882C26.5833 7.28882 26.8612 7.28882 27.1699 7.28882C27.6947 7.28882 28.0034 7.59752 28.0034 8.1532C28.0034 8.67801 28.0034 9.17194 28.0034 9.69675C28.0034 10.1907 27.7873 10.5611 27.2934 10.592C26.5833 10.6229 25.8424 10.592 25.1324 10.5303C24.7928 10.4994 24.6076 10.2216 24.6076 9.8511C24.6076 9.23369 24.6076 8.64714 24.6076 8.02972C24.6076 7.56666 24.8546 7.31969 25.3176 7.28882C25.472 7.28882 25.6572 7.28882 25.8116 7.28882C25.9659 7.28882 26.1203 7.28882 26.2746 7.28882Z" fill="#0A131B"/>
<path d="M39.3331 3.1829C39.3331 3.46074 39.3331 3.70771 39.3331 3.98555C39.3331 4.51035 39.117 4.7882 38.5922 4.81907C37.9747 4.84994 37.3573 4.84994 36.7399 4.81907C36.246 4.7882 35.9681 4.41774 35.9681 3.9238C35.9681 3.39899 35.9681 2.90506 35.9681 2.38025C35.999 1.7937 36.2768 1.51587 36.8634 1.51587C37.4499 1.51587 38.0056 1.51587 38.5922 1.51587C39.0861 1.51587 39.3022 1.76284 39.3331 2.25677C39.3331 2.28764 39.3331 2.31851 39.3331 2.38025C39.3331 2.62722 39.3331 2.90506 39.3331 3.1829Z" fill="#0A131B"/>
<path d="M11.7962 72.8588C11.7962 73.1675 11.7962 73.4762 11.7962 73.7849C11.7653 74.1862 11.5492 74.464 11.1479 74.464C10.4378 74.4949 9.7278 74.464 9.01777 74.4332C8.67819 74.4023 8.49296 74.1553 8.46209 73.8466C8.43122 73.1983 8.43122 72.55 8.46209 71.8709C8.49296 71.3769 8.7708 71.1608 9.29561 71.1608C9.82041 71.13 10.3452 71.13 10.87 71.1608C11.4874 71.1917 11.7344 71.4696 11.7344 72.0561C11.7962 72.3339 11.7962 72.5809 11.7962 72.8588Z" fill="#0A131B"/>
<path d="M22.4775 65.2336C22.7553 65.2336 23.0332 65.2336 23.311 65.2336C23.8976 65.2336 24.2063 65.5424 24.2063 66.1289C24.2063 66.592 24.2063 67.055 24.2063 67.5181C24.2063 68.1046 23.9593 68.4751 23.4036 68.4751C22.7245 68.506 22.0144 68.4442 21.3353 68.4134C20.9957 68.3825 20.8413 68.1355 20.8105 67.7959C20.8105 67.1476 20.8105 66.4994 20.8105 65.8819C20.8105 65.5115 21.0883 65.2645 21.4896 65.2336C21.8601 65.2336 22.1688 65.2336 22.4775 65.2336Z" fill="#0A131B"/>
<path d="M110.614 49.119C110.614 49.9834 110.614 50.8787 110.614 51.7431C110.614 52.0209 110.522 52.1444 110.275 52.1444C109.101 52.1135 109.225 52.2679 109.225 51.2182C109.225 49.7056 109.225 48.2238 109.225 46.7111C109.225 46.248 109.287 46.1863 109.719 46.1863C110.552 46.1863 110.552 46.1863 110.552 46.9889C110.552 47.6989 110.552 48.4399 110.552 49.1499C110.583 49.119 110.583 49.119 110.614 49.119Z" fill="#0A131B"/>
</svg>
