<?xml version="1.0" encoding="UTF-8"?>
<svg xmlns="http://www.w3.org/2000/svg" xmlns:xlink="http://www.w3.org/1999/xlink" width="107px" height="65px" viewBox="0 0 106 65" version="1.1">
<g id="surface1">
<path style=" stroke:none;fill-rule:nonzero;fill:rgb(3.921569%,7.45098%,10.588235%);fill-opacity:1;" d="M 18.71875 32.320312 C 18.71875 35.671875 18.71875 39.027344 18.71875 42.378906 C 18.71875 42.5625 18.746094 42.75 18.746094 42.933594 C 18.746094 43.277344 18.539062 43.515625 18.195312 43.515625 C 15.761719 43.515625 13.300781 43.539062 10.867188 43.460938 C 9.375 43.410156 7.960938 42.988281 6.601562 42.328125 C 5.394531 41.71875 4.269531 40.980469 3.328125 40.03125 C 2.410156 39.105469 1.652344 38.050781 1.078125 36.859375 C 0.605469 35.859375 0.289062 34.855469 0.1875 33.746094 C 0.132812 33.242188 -0.0234375 32.742188 0.00390625 32.242188 C 0.0273438 31.527344 0.132812 30.816406 0.289062 30.128906 C 0.421875 29.519531 0.605469 28.941406 0.839844 28.359375 C 1.390625 26.960938 2.203125 25.746094 3.25 24.6875 C 4.191406 23.738281 5.238281 23 6.417969 22.390625 C 7.253906 21.96875 8.117188 21.652344 9.0625 21.46875 C 9.375 21.414062 9.6875 21.335938 10.003906 21.257812 C 10.292969 21.203125 10.394531 21.308594 10.394531 21.601562 C 10.394531 22.972656 10.421875 24.371094 10.421875 25.746094 C 10.421875 26.195312 10.394531 26.195312 9.871094 26.378906 C 8.5625 26.800781 7.464844 27.515625 6.601562 28.625 C 5.734375 29.757812 5.238281 31 5.265625 32.453125 C 5.289062 33.773438 5.789062 34.960938 6.601562 35.988281 C 7.203125 36.753906 7.933594 37.363281 8.800781 37.8125 C 9.820312 38.339844 10.894531 38.523438 12.019531 38.550781 C 12.332031 38.550781 12.671875 38.550781 12.988281 38.550781 C 13.378906 38.550781 13.484375 38.417969 13.484375 38.023438 C 13.484375 36.042969 13.484375 34.0625 13.484375 32.082031 C 13.511719 28.625 13.539062 25.164062 13.539062 21.730469 C 13.539062 21.308594 13.800781 21.070312 14.21875 21.070312 C 15.472656 21.070312 16.757812 21.070312 18.015625 21.070312 C 18.457031 21.070312 18.640625 21.257812 18.640625 21.707031 C 18.71875 25.269531 18.71875 28.78125 18.71875 32.320312 Z M 18.71875 32.320312 "/>
<path style=" stroke:none;fill-rule:nonzero;fill:rgb(3.921569%,7.45098%,10.588235%);fill-opacity:1;" d="M 20.65625 32.398438 C 20.65625 28.886719 20.65625 25.375 20.65625 21.863281 C 20.65625 21.46875 21.023438 21.097656 21.417969 21.097656 C 24.871094 21.097656 28.328125 21.097656 31.785156 21.097656 C 32.175781 21.097656 32.4375 21.363281 32.4375 21.757812 C 32.4375 23 32.4375 24.242188 32.464844 25.480469 C 32.464844 25.851562 32.203125 26.113281 31.835938 26.113281 C 30.054688 26.113281 28.25 26.113281 26.46875 26.113281 C 25.972656 26.113281 25.917969 26.167969 25.917969 26.667969 C 25.917969 32.082031 25.917969 37.496094 25.917969 42.90625 C 25.917969 43.304688 25.710938 43.515625 25.316406 43.515625 C 23.957031 43.515625 22.59375 43.488281 21.234375 43.488281 C 20.867188 43.488281 20.683594 43.277344 20.683594 42.90625 C 20.65625 39.394531 20.65625 35.910156 20.65625 32.398438 Z M 20.65625 32.398438 "/>
<path style=" stroke:none;fill-rule:nonzero;fill:rgb(3.921569%,7.45098%,10.588235%);fill-opacity:1;" d="M 35.789062 27.726562 C 35.789062 26.035156 35.789062 24.347656 35.789062 22.65625 C 35.789062 22.179688 35.921875 22.050781 36.390625 22.050781 C 37.359375 22.050781 38.300781 22.023438 39.269531 22.050781 C 40.003906 22.074219 40.761719 22.128906 41.46875 22.390625 C 43.171875 23.050781 44.480469 24.160156 45.160156 25.878906 C 45.578125 26.90625 45.578125 27.988281 45.316406 29.074219 C 45.082031 30.050781 44.558594 30.894531 43.878906 31.582031 C 43.378906 32.054688 42.777344 32.453125 42.175781 32.769531 C 41.652344 33.058594 41.050781 33.191406 40.476562 33.375 C 40.292969 33.429688 40.109375 33.429688 39.925781 33.429688 C 38.695312 33.429688 37.492188 33.429688 36.261719 33.429688 C 35.894531 33.429688 35.789062 33.296875 35.789062 32.875 C 35.761719 31.15625 35.761719 29.441406 35.789062 27.726562 Z M 38.589844 27.699219 C 38.589844 28.148438 38.589844 28.570312 38.589844 29.019531 C 38.589844 29.46875 38.589844 29.917969 38.589844 30.367188 C 38.589844 30.628906 38.667969 30.894531 38.984375 30.839844 C 39.53125 30.789062 40.082031 30.789062 40.578125 30.605469 C 41.261719 30.367188 41.835938 29.945312 42.253906 29.285156 C 42.9375 28.226562 42.882812 26.828125 42.070312 25.902344 C 41.261719 24.980469 40.265625 24.53125 39.035156 24.609375 C 38.667969 24.636719 38.589844 24.691406 38.589844 25.058594 C 38.589844 25.957031 38.589844 26.828125 38.589844 27.699219 Z M 38.589844 27.699219 "/>
<path style=" stroke:none;fill-rule:nonzero;fill:rgb(3.921569%,7.45098%,10.588235%);fill-opacity:1;" d="M 48.722656 27.699219 C 48.722656 26.035156 48.722656 24.347656 48.722656 22.683594 C 48.722656 22.128906 48.824219 22.050781 49.375 22.050781 C 51.523438 22.050781 53.667969 22.050781 55.816406 22.050781 C 56.128906 22.050781 56.261719 22.15625 56.261719 22.472656 C 56.261719 23.050781 56.285156 23.605469 56.285156 24.1875 C 56.285156 24.476562 56.105469 24.636719 55.761719 24.636719 C 54.613281 24.636719 53.484375 24.636719 52.332031 24.636719 C 51.3125 24.636719 51.496094 24.664062 51.46875 25.480469 C 51.417969 26.667969 51.574219 26.511719 52.464844 26.511719 C 53.5625 26.511719 54.636719 26.511719 55.738281 26.511719 C 56.183594 26.511719 56.261719 26.589844 56.261719 27.011719 C 56.261719 27.460938 56.261719 27.9375 56.285156 28.386719 C 56.285156 28.914062 56.183594 29.019531 55.683594 29.019531 C 54.453125 29.019531 53.25 29.019531 52.019531 29.019531 C 51.523438 29.019531 51.46875 29.097656 51.46875 29.601562 C 51.46875 29.863281 51.46875 30.128906 51.46875 30.390625 C 51.46875 30.789062 51.574219 30.867188 51.96875 30.867188 C 53.222656 30.867188 54.507812 30.867188 55.761719 30.867188 C 56.207031 30.867188 56.261719 30.921875 56.261719 31.371094 C 56.261719 31.871094 56.261719 32.347656 56.285156 32.847656 C 56.285156 33.269531 56.15625 33.402344 55.738281 33.402344 C 53.5625 33.402344 51.390625 33.402344 49.21875 33.375 C 48.800781 33.375 48.722656 33.269531 48.722656 32.875 C 48.722656 31.183594 48.722656 29.441406 48.722656 27.699219 Z M 48.722656 27.699219 "/>
<path style=" stroke:none;fill-rule:nonzero;fill:rgb(3.921569%,7.45098%,10.588235%);fill-opacity:1;" d="M 72.125 27.753906 C 72.125 26.035156 72.125 24.347656 72.125 22.628906 C 72.125 22.15625 72.28125 22.023438 72.726562 22.050781 C 74.847656 22.050781 76.96875 22.074219 79.113281 22.074219 C 79.558594 22.074219 79.636719 22.128906 79.664062 22.601562 C 79.691406 23.078125 79.691406 23.554688 79.691406 24.027344 C 79.691406 24.582031 79.613281 24.664062 79.035156 24.664062 C 77.804688 24.664062 76.574219 24.664062 75.34375 24.664062 C 74.898438 24.664062 74.847656 24.714844 74.847656 25.164062 C 74.847656 25.453125 74.847656 25.746094 74.847656 26.007812 C 74.847656 26.351562 74.976562 26.484375 75.320312 26.484375 C 76.601562 26.484375 77.859375 26.484375 79.140625 26.484375 C 79.585938 26.484375 79.636719 26.539062 79.636719 26.960938 C 79.664062 27.433594 79.664062 27.9375 79.691406 28.410156 C 79.691406 28.941406 79.636719 28.992188 79.113281 28.992188 C 77.882812 28.992188 76.652344 28.992188 75.421875 28.992188 C 74.898438 28.992188 74.847656 29.046875 74.847656 29.574219 C 74.847656 29.835938 74.847656 30.101562 74.847656 30.367188 C 74.847656 30.734375 74.953125 30.839844 75.320312 30.839844 C 76.574219 30.839844 77.859375 30.839844 79.113281 30.839844 C 79.636719 30.839844 79.636719 30.839844 79.664062 31.371094 C 79.664062 31.871094 79.691406 32.347656 79.691406 32.847656 C 79.691406 33.296875 79.585938 33.402344 79.167969 33.402344 C 76.996094 33.402344 74.796875 33.402344 72.621094 33.375 C 72.230469 33.375 72.125 33.269531 72.125 32.875 C 72.125 31.183594 72.125 29.46875 72.125 27.753906 Z M 72.125 27.753906 "/>
<path style=" stroke:none;fill-rule:nonzero;fill:rgb(3.921569%,7.45098%,10.588235%);fill-opacity:1;" d="M 89.324219 33.429688 C 87.570312 33.453125 86.261719 33.03125 85.109375 32.136719 C 84.21875 31.449219 83.511719 30.550781 83.171875 29.46875 C 82.648438 27.777344 82.859375 26.195312 83.851562 24.6875 C 84.480469 23.738281 85.34375 23.105469 86.339844 22.628906 C 87.019531 22.3125 87.726562 22.074219 88.511719 22.101562 C 89.167969 22.128906 89.820312 22.050781 90.449219 22.179688 C 91.210938 22.339844 91.96875 22.65625 92.621094 23.105469 C 92.78125 23.238281 92.960938 23.34375 93.121094 23.476562 C 93.304688 23.632812 93.328125 23.84375 93.144531 24.03125 C 92.648438 24.503906 92.152344 25.007812 91.628906 25.480469 C 91.574219 25.535156 91.339844 25.535156 91.261719 25.453125 C 90.5 24.847656 89.640625 24.558594 88.667969 24.6875 C 87.097656 24.902344 85.660156 26.007812 85.683594 27.882812 C 85.683594 28.464844 85.894531 28.992188 86.261719 29.46875 C 86.679688 29.996094 87.179688 30.472656 87.832031 30.65625 C 88.460938 30.867188 89.113281 31 89.820312 30.789062 C 90.34375 30.628906 90.84375 30.445312 91.261719 30.074219 C 91.472656 29.890625 91.65625 30.050781 91.8125 30.179688 C 92.152344 30.472656 92.464844 30.789062 92.78125 31.105469 C 92.804688 31.132812 92.832031 31.15625 92.886719 31.183594 C 93.40625 31.660156 93.40625 31.871094 92.804688 32.265625 C 91.601562 33.113281 90.5 33.453125 89.324219 33.429688 Z M 89.324219 33.429688 "/>
<path style=" stroke:none;fill-rule:nonzero;fill:rgb(3.921569%,7.45098%,10.588235%);fill-opacity:1;" d="M 64.269531 21.917969 C 65.683594 21.917969 67.074219 21.917969 68.484375 21.917969 C 68.90625 21.917969 68.984375 21.996094 68.984375 22.417969 C 68.984375 22.867188 69.035156 23.316406 69.007812 23.765625 C 68.984375 24.003906 68.929688 24.265625 68.800781 24.503906 C 68.746094 24.609375 68.539062 24.664062 68.40625 24.664062 C 67.621094 24.664062 66.863281 24.664062 66.078125 24.664062 C 65.632812 24.664062 65.605469 24.691406 65.605469 25.136719 C 65.605469 27.648438 65.605469 30.15625 65.605469 32.664062 C 65.605469 32.820312 65.660156 33.007812 65.582031 33.113281 C 65.476562 33.269531 65.292969 33.429688 65.109375 33.429688 C 64.453125 33.457031 63.800781 33.429688 63.144531 33.429688 C 62.859375 33.429688 62.832031 33.191406 62.753906 33.007812 C 62.726562 32.902344 62.726562 32.796875 62.726562 32.691406 C 62.753906 30.128906 62.777344 27.59375 62.832031 25.03125 C 62.832031 24.503906 62.753906 24.425781 62.230469 24.425781 C 61.496094 24.425781 60.738281 24.425781 60.003906 24.425781 C 59.691406 24.425781 59.53125 24.242188 59.53125 23.921875 C 59.53125 23.394531 59.558594 22.867188 59.53125 22.339844 C 59.507812 21.996094 59.636719 21.917969 59.953125 21.917969 C 61.417969 21.917969 62.832031 21.917969 64.269531 21.917969 Z M 64.269531 21.917969 "/>
<path style=" stroke:none;fill-rule:nonzero;fill:rgb(3.921569%,7.45098%,10.588235%);fill-opacity:1;" d="M 101.234375 22.101562 C 102.648438 22.101562 104.035156 22.101562 105.449219 22.101562 C 105.894531 22.101562 105.949219 22.15625 105.949219 22.605469 C 105.949219 23.105469 105.972656 23.582031 106 24.082031 C 106 24.476562 105.84375 24.636719 105.449219 24.636719 C 104.664062 24.636719 103.90625 24.636719 103.121094 24.636719 C 102.648438 24.636719 102.597656 24.6875 102.597656 25.164062 C 102.597656 27.726562 102.597656 30.285156 102.597656 32.847656 C 102.597656 33.375 102.542969 33.429688 102.019531 33.429688 C 101.496094 33.429688 100.949219 33.429688 100.421875 33.402344 C 100.058594 33.402344 99.925781 33.242188 99.925781 32.875 C 99.925781 30.683594 99.925781 28.492188 99.925781 26.300781 C 99.925781 25.902344 99.898438 25.480469 99.875 25.085938 C 99.847656 24.714844 99.769531 24.636719 99.429688 24.636719 C 98.667969 24.636719 97.910156 24.609375 97.152344 24.609375 C 96.679688 24.609375 96.574219 24.503906 96.601562 24.03125 C 96.601562 23.527344 96.601562 23.050781 96.601562 22.550781 C 96.601562 22.15625 96.628906 22.128906 97.019531 22.128906 C 98.40625 22.101562 99.820312 22.101562 101.234375 22.101562 Z M 101.234375 22.101562 "/>
<path style=" stroke:none;fill-rule:nonzero;fill:rgb(3.921569%,7.45098%,10.588235%);fill-opacity:1;" d="M 59.375 42.007812 C 59.375 41.242188 59.375 40.503906 59.375 39.738281 C 59.375 39.5 59.453125 39.394531 59.691406 39.421875 C 59.875 39.421875 60.054688 39.476562 60.214844 39.421875 C 60.738281 39.316406 61 39.582031 61.234375 40.003906 C 61.652344 40.691406 62.097656 41.375 62.542969 42.035156 C 62.597656 42.117188 62.699219 42.195312 62.804688 42.246094 C 62.859375 42.140625 62.9375 42.007812 62.9375 41.902344 C 62.9375 41.191406 62.9375 40.476562 62.910156 39.765625 C 62.910156 39.5 62.988281 39.394531 63.25 39.421875 C 63.484375 39.449219 63.722656 39.421875 63.929688 39.449219 C 64.007812 39.476562 64.140625 39.605469 64.140625 39.6875 C 64.167969 41.21875 64.167969 42.773438 64.167969 44.308594 C 64.167969 44.597656 64.0625 44.78125 63.746094 44.730469 C 63.644531 44.730469 63.539062 44.703125 63.460938 44.730469 C 62.832031 44.859375 62.542969 44.4375 62.253906 43.964844 C 61.835938 43.277344 61.390625 42.617188 60.972656 41.957031 C 60.945312 41.902344 60.789062 41.851562 60.761719 41.878906 C 60.683594 41.957031 60.632812 42.0625 60.632812 42.140625 C 60.632812 42.828125 60.660156 43.515625 60.660156 44.175781 C 60.660156 44.703125 60.632812 44.730469 60.109375 44.730469 C 59.402344 44.703125 59.402344 44.703125 59.402344 43.988281 C 59.375 43.304688 59.375 42.667969 59.375 42.007812 Z M 59.375 42.007812 "/>
<path style=" stroke:none;fill-rule:nonzero;fill:rgb(3.921569%,7.45098%,10.588235%);fill-opacity:1;" d="M 68.566406 39.421875 C 69.898438 39.394531 70.816406 39.925781 71.367188 41.085938 C 71.890625 42.222656 71.261719 43.777344 70.136719 44.332031 C 69.351562 44.703125 68.589844 44.753906 67.753906 44.570312 C 66.890625 44.359375 66.050781 43.410156 65.894531 42.5625 C 65.582031 40.925781 66.652344 39.871094 67.9375 39.476562 C 68.144531 39.421875 68.40625 39.449219 68.566406 39.421875 Z M 67.125 42.089844 C 67.152344 42.195312 67.152344 42.351562 67.203125 42.511719 C 67.570312 43.355469 68.511719 43.726562 69.351562 43.355469 C 70.1875 42.960938 70.683594 41.929688 69.796875 41.136719 C 69.636719 41.007812 69.480469 40.875 69.296875 40.769531 C 68.878906 40.503906 68.433594 40.558594 68.015625 40.769531 C 67.542969 41.007812 67.152344 41.375 67.125 42.089844 Z M 67.125 42.089844 "/>
<path style=" stroke:none;fill-rule:nonzero;fill:rgb(3.921569%,7.45098%,10.588235%);fill-opacity:1;" d="M 77.859375 42.035156 C 77.859375 40.609375 79.035156 39.476562 80.449219 39.449219 C 81.367188 39.421875 82.125 39.6875 82.832031 40.320312 C 83.773438 41.191406 83.722656 42.878906 82.882812 43.777344 C 81.96875 44.703125 80.867188 44.964844 79.691406 44.570312 C 78.722656 44.253906 77.726562 43.304688 77.859375 42.035156 Z M 80.660156 40.582031 C 79.925781 40.582031 79.089844 41.324219 79.089844 41.984375 C 79.0625 42.695312 79.925781 43.539062 80.683594 43.539062 C 81.445312 43.539062 82.230469 42.773438 82.257812 42.0625 C 82.257812 41.375 81.3125 40.503906 80.660156 40.582031 Z M 80.660156 40.582031 "/>
<path style=" stroke:none;fill-rule:nonzero;fill:rgb(3.921569%,7.45098%,10.588235%);fill-opacity:1;" d="M 89.402344 41.878906 C 89.796875 41.878906 90.1875 41.878906 90.582031 41.878906 C 90.84375 41.878906 90.921875 41.984375 90.867188 42.273438 C 90.738281 42.855469 90.605469 43.410156 90.160156 43.859375 C 89.480469 44.542969 88.644531 44.78125 87.726562 44.675781 C 86.601562 44.542969 85.789062 43.964844 85.34375 42.882812 C 85.238281 42.617188 85.292969 42.328125 85.265625 42.035156 C 85.1875 40.847656 85.84375 40.160156 86.785156 39.710938 C 87.78125 39.238281 88.800781 39.316406 89.742188 39.921875 C 90.003906 40.082031 90.003906 40.214844 89.796875 40.453125 C 89.742188 40.503906 89.691406 40.558594 89.640625 40.609375 C 89.273438 41.03125 89.21875 41.03125 88.75 40.769531 C 88.304688 40.503906 87.832031 40.453125 87.359375 40.742188 C 86.835938 41.058594 86.417969 41.480469 86.523438 42.140625 C 86.601562 42.75 86.996094 43.09375 87.519531 43.382812 C 87.964844 43.621094 88.355469 43.515625 88.773438 43.355469 C 88.851562 43.328125 88.878906 43.25 88.929688 43.199219 C 88.878906 43.144531 88.800781 43.066406 88.75 43.039062 C 88.617188 43.011719 88.484375 43.011719 88.355469 43.011719 C 88.121094 43.039062 88.042969 42.90625 88.042969 42.695312 C 87.988281 41.851562 87.988281 41.851562 88.800781 41.851562 C 88.984375 41.878906 89.195312 41.878906 89.402344 41.878906 Z M 89.402344 41.878906 "/>
<path style=" stroke:none;fill-rule:nonzero;fill:rgb(3.921569%,7.45098%,10.588235%);fill-opacity:1;" d="M 38.640625 2.0625 C 38.640625 2.328125 38.617188 2.589844 38.640625 2.855469 C 38.722656 3.382812 38.066406 4.070312 37.492188 4.042969 C 36.914062 4.015625 36.339844 4.042969 35.761719 4.015625 C 35.160156 3.988281 34.691406 3.515625 34.691406 2.878906 C 34.691406 2.328125 34.742188 1.773438 34.691406 1.242188 C 34.609375 0.664062 35.34375 -0.0507812 35.894531 0.00390625 C 36.363281 0.0546875 36.863281 0.00390625 37.332031 0.00390625 C 38.144531 0.00390625 38.667969 0.53125 38.640625 1.347656 C 38.640625 1.613281 38.640625 1.851562 38.640625 2.0625 Z M 38.640625 2.0625 "/>
<path style=" stroke:none;fill-rule:nonzero;fill:rgb(3.921569%,7.45098%,10.588235%);fill-opacity:1;" d="M 53.382812 42.0625 C 53.382812 41.324219 53.382812 40.558594 53.382812 39.816406 C 53.382812 39.527344 53.484375 39.449219 53.746094 39.449219 C 54.585938 39.449219 54.585938 39.449219 54.585938 40.265625 C 54.585938 40.53125 54.585938 40.769531 54.585938 41.03125 C 54.585938 41.269531 54.691406 41.402344 54.925781 41.402344 C 55.316406 41.402344 55.683594 41.429688 56.078125 41.429688 C 56.445312 41.429688 56.523438 41.324219 56.523438 40.925781 C 56.523438 40.53125 56.523438 40.160156 56.496094 39.765625 C 56.46875 39.5 56.574219 39.449219 56.808594 39.449219 C 57.675781 39.421875 57.675781 39.421875 57.675781 40.265625 C 57.675781 41.585938 57.675781 42.90625 57.699219 44.226562 C 57.699219 44.597656 57.621094 44.675781 57.253906 44.648438 C 56.523438 44.625 56.523438 44.625 56.496094 43.859375 C 56.496094 43.566406 56.46875 43.277344 56.46875 43.011719 C 56.46875 42.75 56.339844 42.617188 56.050781 42.617188 C 55.683594 42.617188 55.34375 42.617188 54.976562 42.617188 C 54.691406 42.617188 54.558594 42.722656 54.558594 43.039062 C 54.558594 43.460938 54.558594 43.882812 54.558594 44.332031 C 54.558594 44.570312 54.480469 44.675781 54.246094 44.675781 C 53.25 44.625 53.355469 44.835938 53.355469 43.804688 C 53.382812 43.222656 53.382812 42.644531 53.382812 42.0625 Z M 53.382812 42.0625 "/>
<path style=" stroke:none;fill-rule:nonzero;fill:rgb(3.921569%,7.45098%,10.588235%);fill-opacity:1;" d="M 36.652344 14.417969 C 36.339844 14.417969 36.050781 14.417969 35.738281 14.417969 C 35.082031 14.390625 34.691406 13.996094 34.691406 13.335938 C 34.691406 12.808594 34.691406 12.253906 34.691406 11.726562 C 34.691406 10.984375 35.109375 10.5625 35.839844 10.5625 C 36.417969 10.5625 36.96875 10.5625 37.542969 10.5625 C 38.199219 10.5625 38.667969 11.066406 38.667969 11.699219 C 38.667969 12.199219 38.640625 12.703125 38.667969 13.203125 C 38.695312 13.917969 38.199219 14.496094 37.492188 14.417969 C 37.203125 14.390625 36.914062 14.417969 36.652344 14.417969 Z M 36.652344 14.417969 "/>
<path style=" stroke:none;fill-rule:nonzero;fill:rgb(3.921569%,7.45098%,10.588235%);fill-opacity:1;" d="M 38.640625 7.15625 C 38.640625 7.421875 38.640625 7.6875 38.640625 7.949219 C 38.640625 8.53125 38.355469 9.007812 37.777344 9.03125 C 36.992188 9.085938 36.183594 9.058594 35.371094 8.980469 C 34.953125 8.953125 34.664062 8.53125 34.664062 8.082031 C 34.664062 7.449219 34.664062 6.839844 34.664062 6.207031 C 34.664062 5.757812 35.1875 5.152344 35.710938 5.175781 C 36.339844 5.230469 36.96875 5.175781 37.59375 5.175781 C 38.09375 5.175781 38.617188 5.707031 38.617188 6.207031 C 38.640625 6.523438 38.640625 6.839844 38.640625 7.15625 Z M 38.640625 7.15625 "/>
<path style=" stroke:none;fill-rule:nonzero;fill:rgb(3.921569%,7.45098%,10.588235%);fill-opacity:1;" d="M 1.730469 62.921875 C 1.730469 62.605469 1.730469 62.285156 1.730469 61.96875 C 1.730469 61.441406 2.148438 60.992188 2.671875 60.964844 C 3.300781 60.964844 3.929688 60.964844 4.558594 60.964844 C 5.027344 60.964844 5.449219 61.335938 5.472656 61.8125 C 5.5 62.550781 5.527344 63.316406 5.5 64.054688 C 5.472656 64.558594 5.003906 64.980469 4.480469 64.980469 C 3.957031 64.980469 3.40625 64.980469 2.882812 64.980469 C 2.464844 64.980469 2.148438 64.796875 1.914062 64.503906 C 1.808594 64.371094 1.730469 64.160156 1.730469 63.976562 C 1.703125 63.605469 1.730469 63.265625 1.730469 62.921875 Z M 1.730469 62.921875 "/>
<path style=" stroke:none;fill-rule:nonzero;fill:rgb(3.921569%,7.45098%,10.588235%);fill-opacity:1;" d="M 95.476562 42.0625 C 95.476562 41.324219 95.476562 40.558594 95.476562 39.816406 C 95.476562 39.554688 95.554688 39.476562 95.816406 39.476562 C 96.785156 39.476562 97.726562 39.476562 98.695312 39.476562 C 98.933594 39.476562 99.011719 39.582031 99.011719 39.816406 C 99.011719 40.558594 99.167969 40.609375 98.277344 40.582031 C 97.9375 40.582031 97.597656 40.582031 97.257812 40.582031 C 96.835938 40.582031 96.734375 40.664062 96.707031 40.980469 C 96.707031 41.347656 96.785156 41.429688 97.230469 41.429688 C 97.675781 41.429688 98.148438 41.457031 98.59375 41.429688 C 98.878906 41.429688 99.011719 41.535156 99.011719 41.824219 C 99.011719 42.773438 99.089844 42.644531 98.226562 42.644531 C 97.832031 42.644531 97.464844 42.644531 97.074219 42.644531 C 96.8125 42.644531 96.707031 42.800781 96.707031 43.039062 C 96.707031 43.304688 96.757812 43.515625 97.074219 43.515625 C 97.570312 43.515625 98.066406 43.515625 98.566406 43.539062 C 98.957031 43.539062 98.984375 43.566406 98.984375 43.964844 C 98.984375 44.648438 99.089844 44.703125 98.277344 44.675781 C 97.464844 44.648438 96.652344 44.648438 95.816406 44.648438 C 95.527344 44.648438 95.421875 44.542969 95.449219 44.253906 C 95.476562 43.539062 95.476562 42.800781 95.476562 42.0625 Z M 95.476562 42.0625 "/>
<path style=" stroke:none;fill-rule:nonzero;fill:rgb(3.921569%,7.45098%,10.588235%);fill-opacity:1;" d="M 17.882812 47.238281 C 17.933594 46.789062 17.933594 46.3125 18.066406 45.890625 C 18.171875 45.496094 18.539062 45.335938 18.929688 45.308594 C 19.53125 45.285156 20.160156 45.308594 20.761719 45.308594 C 21.339844 45.308594 21.808594 45.785156 21.808594 46.390625 C 21.808594 46.972656 21.808594 47.582031 21.808594 48.160156 C 21.808594 48.769531 21.390625 49.21875 20.761719 49.242188 C 20.1875 49.242188 19.585938 49.242188 19.007812 49.242188 C 18.300781 49.21875 17.910156 48.796875 17.933594 48.082031 C 17.933594 47.816406 17.933594 47.527344 17.933594 47.265625 C 17.933594 47.238281 17.910156 47.238281 17.882812 47.238281 Z M 17.882812 47.238281 "/>
<path style=" stroke:none;fill-rule:nonzero;fill:rgb(3.921569%,7.45098%,10.588235%);fill-opacity:1;" d="M 19.871094 50.667969 C 20.1875 50.667969 20.472656 50.667969 20.789062 50.667969 C 21.339844 50.667969 21.808594 51.09375 21.808594 51.648438 C 21.835938 52.308594 21.835938 52.941406 21.808594 53.601562 C 21.785156 54.128906 21.417969 54.523438 20.894531 54.550781 C 20.210938 54.578125 19.53125 54.578125 18.824219 54.550781 C 18.222656 54.523438 17.910156 54.128906 17.910156 53.519531 C 17.910156 52.964844 17.910156 52.414062 17.910156 51.832031 C 17.910156 51.09375 18.300781 50.695312 19.035156 50.695312 C 19.324219 50.695312 19.609375 50.695312 19.871094 50.667969 C 19.871094 50.695312 19.871094 50.695312 19.871094 50.667969 Z M 19.871094 50.667969 "/>
<path style=" stroke:none;fill-rule:nonzero;fill:rgb(3.921569%,7.45098%,10.588235%);fill-opacity:1;" d="M 16.339844 47.289062 C 16.339844 47.582031 16.3125 47.898438 16.339844 48.1875 C 16.390625 48.796875 15.894531 49.21875 15.371094 49.242188 C 14.742188 49.269531 14.085938 49.296875 13.484375 49.21875 C 12.832031 49.136719 12.542969 48.902344 12.542969 48.1875 C 12.542969 47.554688 12.542969 46.945312 12.542969 46.3125 C 12.542969 45.679688 12.933594 45.308594 13.539062 45.308594 C 14.085938 45.308594 14.664062 45.335938 15.210938 45.308594 C 15.839844 45.285156 16.417969 45.757812 16.363281 46.445312 C 16.3125 46.710938 16.339844 47 16.339844 47.289062 Z M 16.339844 47.289062 "/>
<path style=" stroke:none;fill-rule:nonzero;fill:rgb(3.921569%,7.45098%,10.588235%);fill-opacity:1;" d="M 1.730469 57.824219 C 1.730469 57.535156 1.730469 57.242188 1.730469 56.980469 C 1.730469 56.371094 1.914062 56.03125 2.488281 55.976562 C 3.300781 55.898438 4.140625 55.949219 4.949219 56.003906 C 5.289062 56.03125 5.5 56.320312 5.5 56.636719 C 5.527344 57.429688 5.527344 58.246094 5.5 59.039062 C 5.472656 59.433594 5.082031 59.777344 4.6875 59.777344 C 3.980469 59.777344 3.273438 59.777344 2.570312 59.777344 C 2.148438 59.777344 1.757812 59.355469 1.730469 58.90625 C 1.703125 58.5625 1.730469 58.195312 1.730469 57.824219 Z M 1.730469 57.824219 "/>
<path style=" stroke:none;fill-rule:nonzero;fill:rgb(3.921569%,7.45098%,10.588235%);fill-opacity:1;" d="M 3.640625 50.695312 C 3.957031 50.695312 4.242188 50.695312 4.558594 50.695312 C 5.109375 50.695312 5.472656 51.011719 5.5 51.542969 C 5.554688 52.28125 5.527344 53.046875 5.5 53.785156 C 5.472656 54.261719 5.132812 54.550781 4.609375 54.578125 C 3.957031 54.605469 3.300781 54.605469 2.648438 54.578125 C 2.019531 54.550781 1.703125 54.179688 1.703125 53.546875 C 1.703125 52.914062 1.703125 52.308594 1.703125 51.671875 C 1.703125 51.117188 2.097656 50.722656 2.648438 50.722656 C 2.988281 50.667969 3.328125 50.695312 3.640625 50.695312 Z M 3.640625 50.695312 "/>
<path style=" stroke:none;fill-rule:nonzero;fill:rgb(3.921569%,7.45098%,10.588235%);fill-opacity:1;" d="M 16.339844 52.648438 C 16.339844 52.964844 16.339844 53.257812 16.339844 53.574219 C 16.339844 54.128906 16.023438 54.523438 15.472656 54.550781 C 14.769531 54.578125 14.085938 54.578125 13.378906 54.550781 C 12.804688 54.523438 12.515625 54.179688 12.515625 53.601562 C 12.515625 52.964844 12.515625 52.332031 12.515625 51.699219 C 12.515625 51.039062 12.960938 50.722656 13.539062 50.722656 C 14.140625 50.722656 14.742188 50.722656 15.34375 50.722656 C 15.945312 50.722656 16.339844 51.117188 16.339844 51.726562 C 16.339844 52.015625 16.3125 52.332031 16.339844 52.648438 Z M 16.339844 52.648438 "/>
<path style=" stroke:none;fill-rule:nonzero;fill:rgb(3.921569%,7.45098%,10.588235%);fill-opacity:1;" d="M 16.339844 57.851562 C 16.339844 58.195312 16.339844 58.539062 16.339844 58.882812 C 16.3125 59.410156 15.945312 59.804688 15.394531 59.804688 C 14.742188 59.804688 14.0625 59.804688 13.40625 59.777344 C 12.933594 59.777344 12.570312 59.433594 12.542969 58.960938 C 12.515625 58.195312 12.515625 57.457031 12.542969 56.691406 C 12.570312 56.214844 12.933594 55.925781 13.484375 55.898438 C 14.085938 55.871094 14.6875 55.871094 15.292969 55.898438 C 15.917969 55.925781 16.390625 56.292969 16.339844 56.980469 C 16.3125 57.269531 16.3125 57.5625 16.339844 57.851562 Z M 16.339844 57.851562 "/>
<path style=" stroke:none;fill-rule:nonzero;fill:rgb(3.921569%,7.45098%,10.588235%);fill-opacity:1;" d="M 9.085938 50.667969 C 9.402344 50.667969 9.714844 50.667969 10.027344 50.667969 C 10.554688 50.667969 10.996094 51.09375 10.996094 51.621094 C 11.023438 52.253906 11.023438 52.886719 11.023438 53.519531 C 11.023438 54.074219 10.683594 54.5 10.109375 54.523438 C 9.425781 54.550781 8.746094 54.550781 8.039062 54.523438 C 7.542969 54.5 7.226562 54.234375 7.203125 53.757812 C 7.148438 52.964844 7.175781 52.175781 7.226562 51.410156 C 7.253906 50.988281 7.648438 50.722656 8.066406 50.695312 C 8.40625 50.667969 8.746094 50.695312 9.085938 50.667969 C 9.085938 50.695312 9.085938 50.695312 9.085938 50.667969 Z M 9.085938 50.667969 "/>
<path style=" stroke:none;fill-rule:nonzero;fill:rgb(3.921569%,7.45098%,10.588235%);fill-opacity:1;" d="M 9.085938 59.804688 C 8.773438 59.804688 8.457031 59.804688 8.144531 59.804688 C 7.621094 59.804688 7.226562 59.488281 7.203125 58.988281 C 7.148438 58.246094 7.175781 57.480469 7.203125 56.742188 C 7.203125 56.320312 7.464844 56.003906 7.882812 56.003906 C 8.71875 55.976562 9.558594 55.976562 10.371094 56.03125 C 10.734375 56.054688 10.996094 56.476562 10.996094 56.847656 C 10.996094 57.535156 11.023438 58.222656 10.996094 58.882812 C 10.996094 59.382812 10.554688 59.804688 10.054688 59.804688 C 9.742188 59.804688 9.402344 59.804688 9.085938 59.804688 Z M 9.085938 59.804688 "/>
<path style=" stroke:none;fill-rule:nonzero;fill:rgb(3.921569%,7.45098%,10.588235%);fill-opacity:1;" d="M 23.144531 17.453125 C 23.144531 17.773438 23.144531 18.089844 23.144531 18.40625 C 23.144531 18.960938 22.777344 19.355469 22.230469 19.355469 C 21.574219 19.382812 20.894531 19.355469 20.238281 19.355469 C 19.636719 19.328125 19.324219 19.011719 19.324219 18.40625 C 19.324219 17.746094 19.324219 17.058594 19.347656 16.398438 C 19.375 15.871094 19.742188 15.527344 20.238281 15.5 C 20.894531 15.476562 21.546875 15.476562 22.203125 15.5 C 22.753906 15.5 23.117188 15.898438 23.117188 16.453125 C 23.144531 16.769531 23.144531 17.113281 23.144531 17.453125 Z M 23.144531 17.453125 "/>
<path style=" stroke:none;fill-rule:nonzero;fill:rgb(3.921569%,7.45098%,10.588235%);fill-opacity:1;" d="M 24.664062 17.429688 C 24.664062 17.085938 24.664062 16.742188 24.664062 16.398438 C 24.6875 15.871094 25.054688 15.5 25.578125 15.476562 C 26.234375 15.476562 26.863281 15.476562 27.515625 15.476562 C 28.066406 15.476562 28.460938 15.871094 28.460938 16.425781 C 28.460938 17.085938 28.460938 17.773438 28.460938 18.433594 C 28.460938 18.960938 28.117188 19.328125 27.59375 19.328125 C 26.914062 19.355469 26.234375 19.328125 25.578125 19.328125 C 25.054688 19.328125 24.636719 18.933594 24.664062 18.351562 C 24.664062 18.0625 24.664062 17.746094 24.664062 17.429688 Z M 24.664062 17.429688 "/>
<path style=" stroke:none;fill-rule:nonzero;fill:rgb(3.921569%,7.45098%,10.588235%);fill-opacity:1;" d="M 24.664062 12.332031 C 24.664062 12.015625 24.664062 11.726562 24.664062 11.410156 C 24.664062 10.800781 24.976562 10.457031 25.578125 10.433594 C 26.234375 10.40625 26.886719 10.40625 27.542969 10.433594 C 28.117188 10.457031 28.460938 10.800781 28.460938 11.410156 C 28.460938 12.070312 28.460938 12.730469 28.460938 13.390625 C 28.460938 13.945312 28.066406 14.3125 27.515625 14.3125 C 26.886719 14.3125 26.261719 14.3125 25.632812 14.3125 C 25.003906 14.3125 24.664062 13.945312 24.664062 13.335938 C 24.664062 12.992188 24.664062 12.648438 24.664062 12.332031 Z M 24.664062 12.332031 "/>
<path style=" stroke:none;fill-rule:nonzero;fill:rgb(3.921569%,7.45098%,10.588235%);fill-opacity:1;" d="M 28.460938 7.15625 C 28.460938 7.449219 28.460938 7.738281 28.460938 8.054688 C 28.460938 8.636719 28.25 8.980469 27.699219 9.03125 C 26.886719 9.085938 26.078125 9.058594 25.265625 8.980469 C 24.847656 8.925781 24.636719 8.609375 24.636719 8.1875 C 24.636719 7.5 24.636719 6.816406 24.636719 6.101562 C 24.636719 5.574219 25.03125 5.203125 25.554688 5.203125 C 26.207031 5.203125 26.835938 5.203125 27.492188 5.203125 C 28.015625 5.203125 28.40625 5.574219 28.433594 6.128906 C 28.460938 6.472656 28.460938 6.816406 28.460938 7.15625 Z M 28.460938 7.15625 "/>
<path style=" stroke:none;fill-rule:nonzero;fill:rgb(3.921569%,7.45098%,10.588235%);fill-opacity:1;" d="M 33.355469 7.15625 C 33.355469 7.449219 33.355469 7.738281 33.355469 8.054688 C 33.355469 8.664062 33.144531 9.007812 32.570312 9.03125 C 31.785156 9.085938 30.972656 9.058594 30.160156 8.980469 C 29.742188 8.925781 29.53125 8.582031 29.53125 8.160156 C 29.53125 7.476562 29.53125 6.789062 29.53125 6.128906 C 29.53125 5.601562 29.925781 5.203125 30.476562 5.203125 C 31.078125 5.203125 31.679688 5.203125 32.28125 5.203125 C 32.988281 5.203125 33.328125 5.546875 33.355469 6.261719 C 33.355469 6.550781 33.355469 6.867188 33.355469 7.15625 Z M 33.355469 7.15625 "/>
<path style=" stroke:none;fill-rule:nonzero;fill:rgb(3.921569%,7.45098%,10.588235%);fill-opacity:1;" d="M 29.558594 12.332031 C 29.558594 12.042969 29.585938 11.726562 29.558594 11.433594 C 29.507812 10.800781 29.953125 10.457031 30.476562 10.433594 C 31.128906 10.40625 31.785156 10.40625 32.4375 10.433594 C 33.039062 10.457031 33.355469 10.800781 33.355469 11.410156 C 33.355469 12.070312 33.355469 12.730469 33.355469 13.390625 C 33.355469 13.917969 32.988281 14.3125 32.464844 14.3125 C 31.808594 14.3125 31.15625 14.3125 30.5 14.3125 C 29.898438 14.285156 29.558594 13.945312 29.558594 13.335938 C 29.558594 12.992188 29.558594 12.648438 29.558594 12.332031 Z M 29.558594 12.332031 "/>
<path style=" stroke:none;fill-rule:nonzero;fill:rgb(3.921569%,7.45098%,10.588235%);fill-opacity:1;" d="M 23.144531 12.359375 C 23.144531 12.703125 23.144531 13.074219 23.144531 13.414062 C 23.117188 13.917969 22.753906 14.285156 22.28125 14.3125 C 21.574219 14.339844 20.894531 14.3125 20.1875 14.3125 C 19.714844 14.285156 19.375 13.945312 19.375 13.496094 C 19.347656 12.753906 19.347656 12.015625 19.375 11.277344 C 19.375 10.773438 19.714844 10.484375 20.265625 10.457031 C 20.917969 10.433594 21.574219 10.433594 22.230469 10.457031 C 22.832031 10.484375 23.144531 10.828125 23.171875 11.460938 C 23.144531 11.753906 23.144531 12.042969 23.144531 12.359375 Z M 23.144531 12.359375 "/>
<path style=" stroke:none;fill-rule:nonzero;fill:rgb(3.921569%,7.45098%,10.588235%);fill-opacity:1;" d="M 41.707031 42.007812 C 41.707031 41.296875 41.707031 40.558594 41.707031 39.84375 C 41.707031 39.605469 41.757812 39.5 42.019531 39.5 C 42.960938 39.527344 43.90625 39.5 44.871094 39.5 C 45.136719 39.5 45.214844 39.582031 45.1875 39.84375 C 45.109375 40.558594 45.136719 40.558594 44.429688 40.558594 C 44.0625 40.558594 43.722656 40.558594 43.355469 40.558594 C 42.960938 40.558594 42.832031 40.664062 42.832031 40.980469 C 42.832031 41.324219 42.9375 41.402344 43.328125 41.402344 C 43.800781 41.402344 44.296875 41.402344 44.769531 41.402344 C 45.109375 41.402344 45.214844 41.535156 45.214844 41.902344 C 45.1875 42.511719 45.316406 42.617188 44.480469 42.589844 C 44.0625 42.589844 43.640625 42.589844 43.25 42.589844 C 42.9375 42.589844 42.855469 42.75 42.855469 43.011719 C 42.855469 43.382812 42.960938 43.515625 43.25 43.515625 C 43.800781 43.542969 44.347656 43.542969 44.925781 43.515625 C 45.160156 43.515625 45.238281 43.59375 45.214844 43.859375 C 45.136719 44.570312 45.160156 44.570312 44.429688 44.570312 C 43.640625 44.570312 42.882812 44.570312 42.097656 44.570312 C 41.808594 44.570312 41.707031 44.464844 41.730469 44.175781 C 41.707031 43.488281 41.707031 42.75 41.707031 42.007812 Z M 41.707031 42.007812 "/>
<path style=" stroke:none;fill-rule:nonzero;fill:rgb(3.921569%,7.45098%,10.588235%);fill-opacity:1;" d="M 49.792969 39.421875 C 50.34375 39.34375 50.867188 39.554688 51.367188 39.898438 C 51.679688 40.109375 51.628906 40.160156 51.417969 40.453125 C 51.023438 40.925781 50.683594 41.007812 50.136719 40.691406 C 49.347656 40.242188 48.460938 41.03125 48.199219 41.585938 C 47.910156 42.246094 48.484375 43.066406 49.0625 43.328125 C 49.609375 43.59375 50.082031 43.410156 50.554688 43.171875 C 50.761719 43.066406 50.921875 43.066406 51.078125 43.222656 C 51.15625 43.304688 51.234375 43.382812 51.3125 43.460938 C 51.785156 43.910156 51.652344 43.988281 51.183594 44.28125 C 49.769531 45.125 47.9375 44.648438 47.125 43.222656 C 46.496094 42.089844 46.808594 40.664062 47.988281 39.898438 C 48.5625 39.527344 48.929688 39.421875 49.792969 39.421875 Z M 49.792969 39.421875 "/>
<path style=" stroke:none;fill-rule:nonzero;fill:rgb(3.921569%,7.45098%,10.588235%);fill-opacity:1;" d="M 102.492188 39.476562 C 102.988281 39.371094 103.433594 39.582031 103.855469 39.792969 C 104.167969 39.949219 104.167969 40.082031 103.90625 40.320312 C 103.855469 40.371094 103.773438 40.425781 103.722656 40.476562 C 103.460938 40.820312 103.171875 40.980469 102.804688 40.691406 C 102.78125 40.664062 102.753906 40.664062 102.703125 40.664062 C 102.308594 40.582031 101.996094 40.714844 101.941406 40.980469 C 101.890625 41.242188 102.125 41.429688 102.542969 41.480469 C 103.171875 41.5625 103.75 41.746094 104.140625 42.300781 C 104.535156 42.882812 104.375 43.832031 103.828125 44.28125 C 103.171875 44.835938 102.308594 44.941406 101.3125 44.4375 C 101.289062 44.414062 101.261719 44.414062 101.234375 44.386719 C 101.050781 44.226562 100.867188 44.070312 100.6875 43.9375 C 100.949219 43.671875 101.210938 43.410156 101.472656 43.171875 C 101.496094 43.144531 101.628906 43.199219 101.707031 43.222656 C 101.941406 43.304688 102.152344 43.410156 102.386719 43.488281 C 102.625 43.566406 102.964844 43.382812 103.015625 43.171875 C 103.066406 42.960938 102.882812 42.75 102.570312 42.722656 C 102.074219 42.667969 101.628906 42.5625 101.210938 42.246094 C 100.503906 41.71875 100.476562 40.398438 101.210938 39.871094 C 101.652344 39.554688 102.019531 39.394531 102.492188 39.476562 Z M 102.492188 39.476562 "/>
<path style=" stroke:none;fill-rule:nonzero;fill:rgb(3.921569%,7.45098%,10.588235%);fill-opacity:1;" d="M 35.5 39.5 C 36.023438 39.5 36.546875 39.5 37.046875 39.5 C 37.910156 39.5 38.773438 39.5 39.636719 39.5 C 39.871094 39.5 39.953125 39.582031 39.953125 39.816406 C 39.925781 40.558594 40.132812 40.609375 39.21875 40.582031 C 38.484375 40.558594 38.484375 40.582031 38.484375 41.324219 C 38.484375 42.300781 38.460938 43.277344 38.484375 44.253906 C 38.484375 44.570312 38.355469 44.648438 38.066406 44.675781 C 37.230469 44.703125 37.230469 44.703125 37.230469 43.882812 C 37.230469 42.933594 37.230469 41.984375 37.203125 41.007812 C 37.203125 40.714844 37.046875 40.582031 36.785156 40.582031 C 36.496094 40.558594 36.207031 40.558594 35.894531 40.558594 C 35.632812 40.558594 35.476562 40.476562 35.527344 40.160156 C 35.527344 39.925781 35.5 39.710938 35.5 39.5 Z M 35.5 39.5 "/>
<path style=" stroke:none;fill-rule:nonzero;fill:rgb(3.921569%,7.45098%,10.588235%);fill-opacity:1;" d="M 73.222656 42.007812 C 73.222656 41.269531 73.222656 40.503906 73.222656 39.765625 C 73.222656 39.582031 73.277344 39.5 73.460938 39.5 C 73.484375 39.5 73.511719 39.5 73.566406 39.5 C 74.453125 39.476562 74.453125 39.476562 74.480469 40.347656 C 74.507812 41.242188 74.480469 42.113281 74.507812 43.011719 C 74.507812 43.515625 74.558594 43.566406 75.058594 43.566406 C 75.449219 43.566406 75.816406 43.566406 76.207031 43.566406 C 76.417969 43.566406 76.496094 43.648438 76.496094 43.859375 C 76.496094 44.625 76.496094 44.625 75.738281 44.625 C 75.03125 44.625 74.351562 44.597656 73.644531 44.597656 C 73.355469 44.597656 73.25 44.492188 73.277344 44.199219 C 73.25 43.488281 73.25 42.75 73.222656 42.007812 Z M 73.222656 42.007812 "/>
<path style=" stroke:none;fill-rule:nonzero;fill:rgb(3.921569%,7.45098%,10.588235%);fill-opacity:1;" d="M 32.515625 16.980469 C 32.515625 17.242188 32.515625 17.507812 32.515625 17.773438 C 32.492188 18.167969 32.28125 18.378906 31.886719 18.40625 C 31.363281 18.433594 30.816406 18.40625 30.292969 18.40625 C 29.953125 18.40625 29.714844 18.167969 29.6875 17.851562 C 29.664062 17.242188 29.6875 16.636719 29.742188 16.027344 C 29.769531 15.6875 30.054688 15.554688 30.371094 15.527344 C 30.839844 15.5 31.339844 15.5 31.808594 15.527344 C 32.230469 15.527344 32.464844 15.792969 32.492188 16.214844 C 32.515625 16.453125 32.515625 16.714844 32.515625 16.980469 Z M 32.515625 16.980469 "/>
<path style=" stroke:none;fill-rule:nonzero;fill:rgb(3.921569%,7.45098%,10.588235%);fill-opacity:1;" d="M 25.710938 46.972656 C 25.710938 47.238281 25.710938 47.476562 25.710938 47.738281 C 25.710938 48.1875 25.449219 48.425781 25.003906 48.453125 C 24.558594 48.453125 24.085938 48.453125 23.640625 48.453125 C 23.195312 48.453125 22.910156 48.265625 22.882812 47.84375 C 22.832031 47.265625 22.855469 46.65625 22.910156 46.074219 C 22.933594 45.707031 23.25 45.574219 23.5625 45.546875 C 24.035156 45.519531 24.53125 45.519531 25.003906 45.546875 C 25.421875 45.546875 25.683594 45.839844 25.683594 46.261719 C 25.710938 46.496094 25.710938 46.734375 25.710938 46.972656 Z M 25.710938 46.972656 "/>
<path style=" stroke:none;fill-rule:nonzero;fill:rgb(3.921569%,7.45098%,10.588235%);fill-opacity:1;" d="M 8.300781 47.765625 C 8.300781 47.5 8.300781 47.238281 8.300781 46.972656 C 8.300781 46.578125 8.511719 46.367188 8.902344 46.339844 C 9.425781 46.3125 9.925781 46.3125 10.449219 46.339844 C 10.839844 46.339844 11.15625 46.628906 11.15625 47.050781 C 11.179688 47.527344 11.179688 48.003906 11.15625 48.476562 C 11.128906 48.902344 10.789062 49.21875 10.371094 49.242188 C 9.925781 49.242188 9.503906 49.242188 9.0625 49.21875 C 8.539062 49.191406 8.300781 48.925781 8.300781 48.398438 C 8.300781 48.1875 8.300781 47.976562 8.300781 47.765625 Z M 8.300781 47.765625 "/>
<path style=" stroke:none;fill-rule:nonzero;fill:rgb(3.921569%,7.45098%,10.588235%);fill-opacity:1;" d="M 18.25 17.984375 C 18.25 18.195312 18.25 18.433594 18.25 18.644531 C 18.25 19.066406 18.015625 19.355469 17.59375 19.355469 C 17.070312 19.382812 16.546875 19.355469 16.023438 19.328125 C 15.605469 19.304688 15.371094 19.011719 15.371094 18.589844 C 15.371094 18.167969 15.371094 17.746094 15.371094 17.347656 C 15.371094 16.820312 15.632812 16.53125 16.15625 16.503906 C 16.625 16.503906 17.125 16.503906 17.59375 16.53125 C 18.015625 16.558594 18.222656 16.769531 18.222656 17.191406 C 18.25 17.453125 18.222656 17.71875 18.25 17.984375 C 18.25 17.984375 18.222656 17.984375 18.25 17.984375 Z M 18.25 17.984375 "/>
<path style=" stroke:none;fill-rule:nonzero;fill:rgb(3.921569%,7.45098%,10.588235%);fill-opacity:1;" d="M 22.28125 6.234375 C 22.542969 6.234375 22.777344 6.234375 23.039062 6.234375 C 23.484375 6.234375 23.746094 6.496094 23.746094 6.972656 C 23.746094 7.421875 23.746094 7.84375 23.746094 8.292969 C 23.746094 8.714844 23.5625 9.03125 23.144531 9.058594 C 22.542969 9.085938 21.914062 9.058594 21.3125 9.007812 C 21.023438 8.980469 20.867188 8.742188 20.867188 8.425781 C 20.867188 7.898438 20.867188 7.394531 20.867188 6.867188 C 20.867188 6.472656 21.078125 6.261719 21.46875 6.234375 C 21.601562 6.234375 21.757812 6.234375 21.886719 6.234375 C 22.019531 6.234375 22.148438 6.234375 22.28125 6.234375 Z M 22.28125 6.234375 "/>
<path style=" stroke:none;fill-rule:nonzero;fill:rgb(3.921569%,7.45098%,10.588235%);fill-opacity:1;" d="M 33.355469 2.722656 C 33.355469 2.960938 33.355469 3.171875 33.355469 3.410156 C 33.355469 3.859375 33.171875 4.09375 32.726562 4.121094 C 32.203125 4.148438 31.679688 4.148438 31.15625 4.121094 C 30.738281 4.09375 30.5 3.777344 30.5 3.355469 C 30.5 2.90625 30.5 2.484375 30.5 2.035156 C 30.527344 1.535156 30.761719 1.296875 31.261719 1.296875 C 31.757812 1.296875 32.230469 1.296875 32.726562 1.296875 C 33.144531 1.296875 33.328125 1.507812 33.355469 1.929688 C 33.355469 1.957031 33.355469 1.984375 33.355469 2.035156 C 33.355469 2.246094 33.355469 2.484375 33.355469 2.722656 Z M 33.355469 2.722656 "/>
<path style=" stroke:none;fill-rule:nonzero;fill:rgb(3.921569%,7.45098%,10.588235%);fill-opacity:1;" d="M 10.003906 62.3125 C 10.003906 62.578125 10.003906 62.839844 10.003906 63.105469 C 9.976562 63.449219 9.792969 63.6875 9.453125 63.6875 C 8.851562 63.710938 8.25 63.6875 7.648438 63.660156 C 7.359375 63.632812 7.203125 63.421875 7.175781 63.160156 C 7.148438 62.605469 7.148438 62.050781 7.175781 61.46875 C 7.203125 61.046875 7.4375 60.859375 7.882812 60.859375 C 8.328125 60.835938 8.773438 60.835938 9.21875 60.859375 C 9.742188 60.886719 9.949219 61.125 9.949219 61.625 C 10.003906 61.863281 10.003906 62.074219 10.003906 62.3125 Z M 10.003906 62.3125 "/>
<path style=" stroke:none;fill-rule:nonzero;fill:rgb(3.921569%,7.45098%,10.588235%);fill-opacity:1;" d="M 19.0625 55.792969 C 19.296875 55.792969 19.53125 55.792969 19.769531 55.792969 C 20.265625 55.792969 20.527344 56.054688 20.527344 56.558594 C 20.527344 56.953125 20.527344 57.351562 20.527344 57.746094 C 20.527344 58.246094 20.316406 58.5625 19.847656 58.5625 C 19.269531 58.589844 18.667969 58.539062 18.09375 58.511719 C 17.804688 58.484375 17.671875 58.273438 17.648438 57.984375 C 17.648438 57.429688 17.648438 56.875 17.648438 56.347656 C 17.648438 56.03125 17.882812 55.816406 18.222656 55.792969 C 18.539062 55.792969 18.800781 55.792969 19.0625 55.792969 Z M 19.0625 55.792969 "/>
<path style=" stroke:none;fill-rule:nonzero;fill:rgb(3.921569%,7.45098%,10.588235%);fill-opacity:1;" d="M 93.800781 42.007812 C 93.800781 42.75 93.800781 43.515625 93.800781 44.253906 C 93.800781 44.492188 93.722656 44.597656 93.511719 44.597656 C 92.519531 44.570312 92.621094 44.703125 92.621094 43.804688 C 92.621094 42.511719 92.621094 41.242188 92.621094 39.949219 C 92.621094 39.554688 92.675781 39.5 93.042969 39.5 C 93.75 39.5 93.75 39.5 93.75 40.1875 C 93.75 40.796875 93.75 41.429688 93.75 42.035156 C 93.773438 42.007812 93.773438 42.007812 93.800781 42.007812 Z M 93.800781 42.007812 "/>
</g>
</svg>
